G75*
G70*
%OFA0B0*%
%FSLAX24Y24*%
%IPPOS*%
%LPD*%
%AMOC8*
5,1,8,0,0,1.08239X$1,22.5*
%
%ADD10C,0.0000*%
%ADD11C,0.0740*%
%ADD12R,0.0740X0.0740*%
%ADD13R,0.0472X0.0217*%
%ADD14R,0.0709X0.0630*%
%ADD15R,0.0394X0.0433*%
%ADD16R,0.0433X0.0394*%
%ADD17R,0.0551X0.0394*%
%ADD18R,0.0512X0.0591*%
%ADD19C,0.0120*%
%ADD20R,0.0396X0.0396*%
D10*
X000411Y001660D02*
X000409Y001594D01*
X000411Y001528D01*
X000417Y001462D01*
X000426Y001396D01*
X000439Y001331D01*
X000456Y001266D01*
X000476Y001203D01*
X000500Y001141D01*
X000527Y001081D01*
X000558Y001022D01*
X000592Y000964D01*
X000629Y000909D01*
X000669Y000856D01*
X000712Y000806D01*
X000757Y000757D01*
X000806Y000712D01*
X000856Y000669D01*
X000909Y000629D01*
X000964Y000592D01*
X001022Y000558D01*
X001081Y000527D01*
X001141Y000500D01*
X001203Y000476D01*
X001266Y000456D01*
X001331Y000439D01*
X001396Y000426D01*
X001462Y000417D01*
X001528Y000411D01*
X001594Y000409D01*
X001660Y000411D01*
X001660Y000410D02*
X008410Y000410D01*
X008478Y000412D01*
X008545Y000417D01*
X008612Y000426D01*
X008679Y000439D01*
X008744Y000456D01*
X008809Y000475D01*
X008873Y000499D01*
X008935Y000526D01*
X008996Y000556D01*
X009054Y000589D01*
X009111Y000625D01*
X009166Y000665D01*
X009219Y000707D01*
X009270Y000753D01*
X009317Y000800D01*
X009363Y000851D01*
X009405Y000904D01*
X009445Y000959D01*
X009481Y001016D01*
X009514Y001074D01*
X009544Y001135D01*
X009571Y001197D01*
X009595Y001261D01*
X009614Y001326D01*
X009631Y001391D01*
X009644Y001458D01*
X009653Y001525D01*
X009658Y001592D01*
X009660Y001660D01*
X009660Y008410D01*
X009658Y008478D01*
X009653Y008545D01*
X009644Y008612D01*
X009631Y008679D01*
X009614Y008744D01*
X009595Y008809D01*
X009571Y008873D01*
X009544Y008935D01*
X009514Y008996D01*
X009481Y009054D01*
X009445Y009111D01*
X009405Y009166D01*
X009363Y009219D01*
X009317Y009270D01*
X009270Y009317D01*
X009219Y009363D01*
X009166Y009405D01*
X009111Y009445D01*
X009054Y009481D01*
X008996Y009514D01*
X008935Y009544D01*
X008873Y009571D01*
X008809Y009595D01*
X008744Y009614D01*
X008679Y009631D01*
X008612Y009644D01*
X008545Y009653D01*
X008478Y009658D01*
X008410Y009660D01*
X001660Y009660D01*
X001592Y009658D01*
X001525Y009653D01*
X001458Y009644D01*
X001391Y009631D01*
X001326Y009614D01*
X001261Y009595D01*
X001197Y009571D01*
X001135Y009544D01*
X001074Y009514D01*
X001016Y009481D01*
X000959Y009445D01*
X000904Y009405D01*
X000851Y009363D01*
X000800Y009317D01*
X000753Y009270D01*
X000707Y009219D01*
X000665Y009166D01*
X000625Y009111D01*
X000589Y009054D01*
X000556Y008996D01*
X000526Y008935D01*
X000499Y008873D01*
X000475Y008809D01*
X000456Y008744D01*
X000439Y008679D01*
X000426Y008612D01*
X000417Y008545D01*
X000412Y008478D01*
X000410Y008410D01*
X000410Y001660D01*
X001035Y001660D02*
X001037Y001710D01*
X001043Y001759D01*
X001053Y001808D01*
X001066Y001855D01*
X001084Y001902D01*
X001105Y001947D01*
X001129Y001990D01*
X001157Y002031D01*
X001188Y002070D01*
X001222Y002106D01*
X001259Y002140D01*
X001299Y002170D01*
X001340Y002197D01*
X001384Y002221D01*
X001429Y002241D01*
X001476Y002257D01*
X001524Y002270D01*
X001573Y002279D01*
X001623Y002284D01*
X001672Y002285D01*
X001722Y002282D01*
X001771Y002275D01*
X001820Y002264D01*
X001867Y002250D01*
X001913Y002231D01*
X001958Y002209D01*
X002001Y002184D01*
X002041Y002155D01*
X002079Y002123D01*
X002115Y002089D01*
X002148Y002051D01*
X002177Y002011D01*
X002203Y001969D01*
X002226Y001925D01*
X002245Y001879D01*
X002261Y001832D01*
X002273Y001783D01*
X002281Y001734D01*
X002285Y001685D01*
X002285Y001635D01*
X002281Y001586D01*
X002273Y001537D01*
X002261Y001488D01*
X002245Y001441D01*
X002226Y001395D01*
X002203Y001351D01*
X002177Y001309D01*
X002148Y001269D01*
X002115Y001231D01*
X002079Y001197D01*
X002041Y001165D01*
X002001Y001136D01*
X001958Y001111D01*
X001913Y001089D01*
X001867Y001070D01*
X001820Y001056D01*
X001771Y001045D01*
X001722Y001038D01*
X001672Y001035D01*
X001623Y001036D01*
X001573Y001041D01*
X001524Y001050D01*
X001476Y001063D01*
X001429Y001079D01*
X001384Y001099D01*
X001340Y001123D01*
X001299Y001150D01*
X001259Y001180D01*
X001222Y001214D01*
X001188Y001250D01*
X001157Y001289D01*
X001129Y001330D01*
X001105Y001373D01*
X001084Y001418D01*
X001066Y001465D01*
X001053Y001512D01*
X001043Y001561D01*
X001037Y001610D01*
X001035Y001660D01*
X007785Y001660D02*
X007787Y001710D01*
X007793Y001759D01*
X007803Y001808D01*
X007816Y001855D01*
X007834Y001902D01*
X007855Y001947D01*
X007879Y001990D01*
X007907Y002031D01*
X007938Y002070D01*
X007972Y002106D01*
X008009Y002140D01*
X008049Y002170D01*
X008090Y002197D01*
X008134Y002221D01*
X008179Y002241D01*
X008226Y002257D01*
X008274Y002270D01*
X008323Y002279D01*
X008373Y002284D01*
X008422Y002285D01*
X008472Y002282D01*
X008521Y002275D01*
X008570Y002264D01*
X008617Y002250D01*
X008663Y002231D01*
X008708Y002209D01*
X008751Y002184D01*
X008791Y002155D01*
X008829Y002123D01*
X008865Y002089D01*
X008898Y002051D01*
X008927Y002011D01*
X008953Y001969D01*
X008976Y001925D01*
X008995Y001879D01*
X009011Y001832D01*
X009023Y001783D01*
X009031Y001734D01*
X009035Y001685D01*
X009035Y001635D01*
X009031Y001586D01*
X009023Y001537D01*
X009011Y001488D01*
X008995Y001441D01*
X008976Y001395D01*
X008953Y001351D01*
X008927Y001309D01*
X008898Y001269D01*
X008865Y001231D01*
X008829Y001197D01*
X008791Y001165D01*
X008751Y001136D01*
X008708Y001111D01*
X008663Y001089D01*
X008617Y001070D01*
X008570Y001056D01*
X008521Y001045D01*
X008472Y001038D01*
X008422Y001035D01*
X008373Y001036D01*
X008323Y001041D01*
X008274Y001050D01*
X008226Y001063D01*
X008179Y001079D01*
X008134Y001099D01*
X008090Y001123D01*
X008049Y001150D01*
X008009Y001180D01*
X007972Y001214D01*
X007938Y001250D01*
X007907Y001289D01*
X007879Y001330D01*
X007855Y001373D01*
X007834Y001418D01*
X007816Y001465D01*
X007803Y001512D01*
X007793Y001561D01*
X007787Y001610D01*
X007785Y001660D01*
X007785Y008410D02*
X007787Y008460D01*
X007793Y008509D01*
X007803Y008558D01*
X007816Y008605D01*
X007834Y008652D01*
X007855Y008697D01*
X007879Y008740D01*
X007907Y008781D01*
X007938Y008820D01*
X007972Y008856D01*
X008009Y008890D01*
X008049Y008920D01*
X008090Y008947D01*
X008134Y008971D01*
X008179Y008991D01*
X008226Y009007D01*
X008274Y009020D01*
X008323Y009029D01*
X008373Y009034D01*
X008422Y009035D01*
X008472Y009032D01*
X008521Y009025D01*
X008570Y009014D01*
X008617Y009000D01*
X008663Y008981D01*
X008708Y008959D01*
X008751Y008934D01*
X008791Y008905D01*
X008829Y008873D01*
X008865Y008839D01*
X008898Y008801D01*
X008927Y008761D01*
X008953Y008719D01*
X008976Y008675D01*
X008995Y008629D01*
X009011Y008582D01*
X009023Y008533D01*
X009031Y008484D01*
X009035Y008435D01*
X009035Y008385D01*
X009031Y008336D01*
X009023Y008287D01*
X009011Y008238D01*
X008995Y008191D01*
X008976Y008145D01*
X008953Y008101D01*
X008927Y008059D01*
X008898Y008019D01*
X008865Y007981D01*
X008829Y007947D01*
X008791Y007915D01*
X008751Y007886D01*
X008708Y007861D01*
X008663Y007839D01*
X008617Y007820D01*
X008570Y007806D01*
X008521Y007795D01*
X008472Y007788D01*
X008422Y007785D01*
X008373Y007786D01*
X008323Y007791D01*
X008274Y007800D01*
X008226Y007813D01*
X008179Y007829D01*
X008134Y007849D01*
X008090Y007873D01*
X008049Y007900D01*
X008009Y007930D01*
X007972Y007964D01*
X007938Y008000D01*
X007907Y008039D01*
X007879Y008080D01*
X007855Y008123D01*
X007834Y008168D01*
X007816Y008215D01*
X007803Y008262D01*
X007793Y008311D01*
X007787Y008360D01*
X007785Y008410D01*
D11*
X008410Y006535D03*
X008410Y005535D03*
X008410Y004535D03*
X001660Y004535D03*
X001660Y005535D03*
X001660Y006535D03*
X001660Y007535D03*
X001660Y003535D03*
D12*
X008410Y003535D03*
D13*
X004422Y007911D03*
X004422Y008659D03*
X003398Y008659D03*
X003398Y008285D03*
X003398Y007911D03*
D14*
X006285Y007734D03*
X006285Y008836D03*
D15*
X004245Y006160D03*
X003575Y006160D03*
X003325Y002910D03*
X003995Y002910D03*
D16*
X006160Y002245D03*
X006160Y001575D03*
X006160Y004700D03*
X006160Y005370D03*
D17*
X005093Y005409D03*
X005093Y004661D03*
X004227Y005035D03*
X005093Y002284D03*
X005093Y001536D03*
X004227Y001910D03*
D18*
X004536Y007035D03*
X005284Y007035D03*
D19*
X005344Y007046D02*
X006835Y007046D01*
X006835Y006928D02*
X005700Y006928D01*
X005700Y006975D02*
X005344Y006975D01*
X005344Y006580D01*
X005561Y006580D01*
X005602Y006591D01*
X005638Y006612D01*
X005668Y006641D01*
X005689Y006678D01*
X005700Y006719D01*
X005700Y006975D01*
X005700Y007095D02*
X005700Y007351D01*
X005689Y007392D01*
X005668Y007429D01*
X005638Y007458D01*
X005602Y007479D01*
X005561Y007490D01*
X005344Y007490D01*
X005344Y007095D01*
X005224Y007095D01*
X005224Y007490D01*
X005007Y007490D01*
X004966Y007479D01*
X004930Y007458D01*
X004900Y007429D01*
X004897Y007423D01*
X004850Y007470D01*
X004222Y007470D01*
X004140Y007388D01*
X004140Y007235D01*
X003743Y007235D01*
X003735Y007243D01*
X003735Y007702D01*
X003744Y007711D01*
X003869Y007711D01*
X003993Y007835D01*
X004046Y007888D01*
X004046Y007745D01*
X004128Y007663D01*
X004716Y007663D01*
X004798Y007745D01*
X004798Y008077D01*
X004716Y008159D01*
X004128Y008159D01*
X004110Y008142D01*
X004110Y008428D01*
X004128Y008411D01*
X004716Y008411D01*
X004764Y008459D01*
X005795Y008459D01*
X005873Y008381D01*
X006697Y008381D01*
X006779Y008463D01*
X006779Y008508D01*
X006835Y008452D01*
X006835Y006373D01*
X006779Y006373D01*
X006697Y006291D01*
X006697Y005779D01*
X006779Y005697D01*
X007291Y005697D01*
X007373Y005779D01*
X007373Y006291D01*
X007291Y006373D01*
X007235Y006373D01*
X007235Y008618D01*
X006985Y008868D01*
X006868Y008985D01*
X006779Y008985D01*
X006779Y009200D01*
X007666Y009200D01*
X007542Y009076D01*
X007399Y008829D01*
X007325Y008553D01*
X007325Y008267D01*
X007399Y007991D01*
X007542Y007744D01*
X007744Y007542D01*
X007991Y007399D01*
X008267Y007325D01*
X008553Y007325D01*
X008829Y007399D01*
X009076Y007542D01*
X009200Y007666D01*
X009200Y006028D01*
X009118Y006110D01*
X008883Y006345D01*
X008920Y006434D01*
X008920Y006636D01*
X008842Y006824D01*
X008699Y006967D01*
X008511Y007045D01*
X008309Y007045D01*
X008121Y006967D01*
X007978Y006824D01*
X007900Y006636D01*
X007900Y006434D01*
X007978Y006246D01*
X008121Y006103D01*
X008284Y006035D01*
X008121Y005967D01*
X007978Y005824D01*
X007900Y005636D01*
X007900Y005610D01*
X006517Y005610D01*
X006517Y005624D01*
X007900Y005624D01*
X007944Y005743D02*
X007337Y005743D01*
X007373Y005861D02*
X008015Y005861D01*
X008150Y005980D02*
X007373Y005980D01*
X007373Y006098D02*
X008132Y006098D01*
X008007Y006217D02*
X007373Y006217D01*
X007329Y006335D02*
X007941Y006335D01*
X007900Y006454D02*
X007235Y006454D01*
X007235Y006572D02*
X007900Y006572D01*
X007922Y006691D02*
X007235Y006691D01*
X007235Y006809D02*
X007971Y006809D01*
X008081Y006928D02*
X007235Y006928D01*
X007235Y007046D02*
X009200Y007046D01*
X009200Y006928D02*
X008739Y006928D01*
X008849Y006809D02*
X009200Y006809D01*
X009200Y006691D02*
X008898Y006691D01*
X008920Y006572D02*
X009200Y006572D01*
X009200Y006454D02*
X008920Y006454D01*
X008893Y006335D02*
X009200Y006335D01*
X009200Y006217D02*
X009011Y006217D01*
X009130Y006098D02*
X009200Y006098D01*
X009035Y005910D02*
X009035Y003035D01*
X008910Y002910D01*
X007660Y002910D01*
X007035Y002285D01*
X006200Y002285D01*
X006160Y002245D01*
X006121Y002284D01*
X005093Y002284D01*
X004756Y001951D02*
X004643Y001951D01*
X004677Y002029D02*
X004759Y001947D01*
X005427Y001947D01*
X005509Y002029D01*
X005509Y002084D01*
X005803Y002084D01*
X005803Y001990D01*
X005883Y001910D01*
X005803Y001830D01*
X005803Y001736D01*
X005509Y001736D01*
X005509Y001791D01*
X005427Y001873D01*
X004759Y001873D01*
X004677Y001791D01*
X004677Y001281D01*
X004759Y001199D01*
X005427Y001199D01*
X005509Y001281D01*
X005509Y001336D01*
X005803Y001336D01*
X005803Y001321D01*
X005885Y001239D01*
X006435Y001239D01*
X006517Y001321D01*
X006517Y001375D01*
X006697Y001375D01*
X006697Y001319D01*
X006779Y001237D01*
X007291Y001237D01*
X007373Y001319D01*
X007373Y001338D01*
X007399Y001241D01*
X007542Y000994D01*
X007666Y000870D01*
X002404Y000870D01*
X002528Y000994D01*
X002671Y001241D01*
X002745Y001517D01*
X002745Y001803D01*
X002671Y002079D01*
X002528Y002326D01*
X002326Y002528D01*
X002079Y002671D01*
X001933Y002710D01*
X002989Y002710D01*
X002989Y002635D01*
X003071Y002553D01*
X003085Y002553D01*
X003085Y002327D01*
X003202Y002210D01*
X003702Y001710D01*
X003811Y001710D01*
X003811Y001655D01*
X003893Y001573D01*
X004561Y001573D01*
X004643Y001655D01*
X004643Y002165D01*
X004561Y002247D01*
X003893Y002247D01*
X003812Y002166D01*
X003485Y002493D01*
X003485Y002553D01*
X003580Y002553D01*
X003660Y002633D01*
X003740Y002553D01*
X004249Y002553D01*
X004331Y002635D01*
X004331Y003185D01*
X004249Y003267D01*
X004110Y003267D01*
X004110Y003368D01*
X003993Y003485D01*
X003368Y004110D01*
X002368Y004110D01*
X002133Y004345D01*
X002170Y004434D01*
X002170Y004636D01*
X002092Y004824D01*
X002081Y004835D01*
X003811Y004835D01*
X003811Y004780D01*
X003893Y004698D01*
X004561Y004698D01*
X004643Y004780D01*
X004643Y005290D01*
X004561Y005372D01*
X004427Y005372D01*
X004427Y005803D01*
X004499Y005803D01*
X004581Y005885D01*
X004581Y006435D01*
X004499Y006517D01*
X003990Y006517D01*
X003910Y006437D01*
X003830Y006517D01*
X003735Y006517D01*
X003735Y006835D01*
X004140Y006835D01*
X004140Y006682D01*
X004222Y006600D01*
X004850Y006600D01*
X004897Y006647D01*
X004900Y006641D01*
X004930Y006612D01*
X004966Y006591D01*
X005007Y006580D01*
X005224Y006580D01*
X005224Y006975D01*
X005344Y006975D01*
X005344Y007095D01*
X005700Y007095D01*
X005700Y007165D02*
X006835Y007165D01*
X006835Y007283D02*
X006724Y007283D01*
X006738Y007291D02*
X006767Y007321D01*
X006788Y007357D01*
X006799Y007398D01*
X006799Y007674D01*
X006345Y007674D01*
X006345Y007794D01*
X006225Y007794D01*
X006225Y008209D01*
X005910Y008209D01*
X005869Y008198D01*
X005832Y008177D01*
X005803Y008147D01*
X005782Y008111D01*
X005771Y008070D01*
X005771Y007794D01*
X006225Y007794D01*
X006225Y007674D01*
X005771Y007674D01*
X005771Y007398D01*
X005782Y007357D01*
X005803Y007321D01*
X005832Y007291D01*
X005869Y007270D01*
X005910Y007259D01*
X006225Y007259D01*
X006225Y007674D01*
X006345Y007674D01*
X006345Y007259D01*
X006660Y007259D01*
X006701Y007270D01*
X006738Y007291D01*
X006799Y007402D02*
X006835Y007402D01*
X006835Y007520D02*
X006799Y007520D01*
X006799Y007639D02*
X006835Y007639D01*
X006835Y007757D02*
X006345Y007757D01*
X006345Y007794D02*
X006799Y007794D01*
X006799Y008070D01*
X006788Y008111D01*
X006767Y008147D01*
X006738Y008177D01*
X006701Y008198D01*
X006660Y008209D01*
X006345Y008209D01*
X006345Y007794D01*
X006345Y007876D02*
X006225Y007876D01*
X006225Y007994D02*
X006345Y007994D01*
X006345Y008113D02*
X006225Y008113D01*
X006225Y007757D02*
X004798Y007757D01*
X004798Y007876D02*
X005771Y007876D01*
X005771Y007994D02*
X004798Y007994D01*
X004763Y008113D02*
X005783Y008113D01*
X005771Y007639D02*
X003735Y007639D01*
X003735Y007520D02*
X005771Y007520D01*
X005771Y007402D02*
X005684Y007402D01*
X005700Y007283D02*
X005846Y007283D01*
X006225Y007283D02*
X006345Y007283D01*
X006345Y007402D02*
X006225Y007402D01*
X006225Y007520D02*
X006345Y007520D01*
X006345Y007639D02*
X006225Y007639D01*
X006799Y007876D02*
X006835Y007876D01*
X006835Y007994D02*
X006799Y007994D01*
X006787Y008113D02*
X006835Y008113D01*
X006835Y008231D02*
X004110Y008231D01*
X004110Y008350D02*
X006835Y008350D01*
X006819Y008468D02*
X006779Y008468D01*
X007035Y008535D02*
X006785Y008785D01*
X006461Y008785D01*
X006285Y008836D01*
X006450Y008785D01*
X006285Y008836D02*
X006121Y008659D01*
X004422Y008659D01*
X004410Y008671D01*
X004410Y008910D01*
X004160Y009160D01*
X002785Y009160D01*
X001660Y008035D01*
X001660Y007535D01*
X002011Y007165D02*
X003335Y007165D01*
X003335Y007283D02*
X002108Y007283D01*
X002092Y007246D02*
X002170Y007434D01*
X002170Y007636D01*
X002092Y007824D01*
X001949Y007967D01*
X001897Y007989D01*
X002868Y008960D01*
X004077Y008960D01*
X004130Y008907D01*
X004128Y008907D01*
X004046Y008825D01*
X004046Y008682D01*
X003993Y008735D01*
X003869Y008859D01*
X003741Y008859D01*
X003692Y008907D01*
X003104Y008907D01*
X003022Y008825D01*
X003022Y008493D01*
X003030Y008485D01*
X003013Y008455D01*
X003002Y008414D01*
X003002Y008285D01*
X003002Y008156D01*
X003013Y008115D01*
X003030Y008085D01*
X003022Y008077D01*
X003022Y007745D01*
X003104Y007663D01*
X003335Y007663D01*
X003335Y006517D01*
X003321Y006517D01*
X003239Y006435D01*
X003239Y006400D01*
X002868Y006400D01*
X002840Y006373D01*
X002529Y006373D01*
X002447Y006291D01*
X002447Y005779D01*
X002529Y005697D01*
X003041Y005697D01*
X003123Y005779D01*
X003123Y006000D01*
X003239Y006000D01*
X003239Y005885D01*
X003321Y005803D01*
X003830Y005803D01*
X003910Y005883D01*
X003990Y005803D01*
X004027Y005803D01*
X004027Y005372D01*
X003893Y005372D01*
X003811Y005290D01*
X003811Y005235D01*
X002243Y005235D01*
X002133Y005345D01*
X002170Y005434D01*
X002170Y005636D01*
X002092Y005824D01*
X001949Y005967D01*
X001786Y006035D01*
X001949Y006103D01*
X002092Y006246D01*
X002170Y006434D01*
X002170Y006636D01*
X002092Y006824D01*
X001949Y006967D01*
X001786Y007035D01*
X001949Y007103D01*
X002092Y007246D01*
X002157Y007402D02*
X003335Y007402D01*
X003335Y007520D02*
X002170Y007520D01*
X002169Y007639D02*
X003335Y007639D01*
X003535Y007774D02*
X003398Y007911D01*
X003660Y007911D01*
X003575Y007826D01*
X003575Y007825D01*
X003535Y007774D02*
X003535Y007160D01*
X003660Y007035D01*
X004536Y007035D01*
X004140Y006809D02*
X003735Y006809D01*
X003735Y006691D02*
X004140Y006691D01*
X003927Y006454D02*
X003893Y006454D01*
X003735Y006572D02*
X006835Y006572D01*
X006835Y006454D02*
X004563Y006454D01*
X004581Y006335D02*
X006741Y006335D01*
X006697Y006217D02*
X004581Y006217D01*
X004581Y006098D02*
X006697Y006098D01*
X006697Y005980D02*
X004581Y005980D01*
X004557Y005861D02*
X006697Y005861D01*
X006733Y005743D02*
X005430Y005743D01*
X005427Y005746D02*
X004759Y005746D01*
X004677Y005664D01*
X004677Y005154D01*
X004759Y005072D01*
X005427Y005072D01*
X005509Y005154D01*
X005509Y005209D01*
X005803Y005209D01*
X005803Y005115D01*
X005883Y005035D01*
X005803Y004955D01*
X005803Y004861D01*
X005509Y004861D01*
X005509Y004916D01*
X005427Y004998D01*
X004759Y004998D01*
X004677Y004916D01*
X004677Y004406D01*
X004759Y004324D01*
X005427Y004324D01*
X005509Y004406D01*
X005509Y004461D01*
X005803Y004461D01*
X005803Y004446D01*
X005885Y004364D01*
X006424Y004364D01*
X006697Y004090D01*
X006697Y003779D01*
X006779Y003697D01*
X007291Y003697D01*
X007373Y003779D01*
X007373Y003835D01*
X007880Y003835D01*
X007880Y003575D01*
X008370Y003575D01*
X008370Y003495D01*
X007880Y003495D01*
X007880Y003144D01*
X007889Y003110D01*
X007577Y003110D01*
X006952Y002485D01*
X006517Y002485D01*
X006517Y002499D01*
X006435Y002581D01*
X005885Y002581D01*
X005803Y002499D01*
X005803Y002484D01*
X005509Y002484D01*
X005509Y002539D01*
X005427Y002621D01*
X004759Y002621D01*
X004677Y002539D01*
X004677Y002029D01*
X004677Y002069D02*
X004643Y002069D01*
X004620Y002188D02*
X004677Y002188D01*
X004677Y002306D02*
X003672Y002306D01*
X003790Y002188D02*
X003834Y002188D01*
X003785Y001910D02*
X003285Y002410D01*
X003285Y002870D01*
X003325Y002910D01*
X001160Y002910D01*
X001035Y003035D01*
X001035Y005910D01*
X001660Y006535D01*
X001989Y006928D02*
X003335Y006928D01*
X003335Y007046D02*
X001812Y007046D01*
X001534Y007035D02*
X001371Y006967D01*
X001228Y006824D01*
X001150Y006636D01*
X001150Y006434D01*
X001187Y006345D01*
X000952Y006110D01*
X000870Y006028D01*
X000870Y008318D01*
X000870Y008410D01*
X000877Y008513D01*
X000930Y008712D01*
X001033Y008891D01*
X001179Y009037D01*
X001358Y009140D01*
X001557Y009193D01*
X001660Y009200D01*
X002542Y009200D01*
X001460Y008118D01*
X001460Y008004D01*
X001371Y007967D01*
X001228Y007824D01*
X001150Y007636D01*
X001150Y007434D01*
X001228Y007246D01*
X001371Y007103D01*
X001534Y007035D01*
X001508Y007046D02*
X000870Y007046D01*
X000870Y006928D02*
X001331Y006928D01*
X001221Y006809D02*
X000870Y006809D01*
X000870Y006691D02*
X001172Y006691D01*
X001150Y006572D02*
X000870Y006572D01*
X000870Y006454D02*
X001150Y006454D01*
X001177Y006335D02*
X000870Y006335D01*
X000870Y006217D02*
X001059Y006217D01*
X000940Y006098D02*
X000870Y006098D01*
X001660Y005535D02*
X002160Y005035D01*
X004227Y005035D01*
X004227Y006142D01*
X004245Y006160D01*
X003932Y005861D02*
X003888Y005861D01*
X004027Y005743D02*
X003087Y005743D01*
X003123Y005861D02*
X003263Y005861D01*
X003239Y005980D02*
X003123Y005980D01*
X002950Y006200D02*
X002785Y006035D01*
X002950Y006200D02*
X003535Y006200D01*
X003575Y006160D01*
X003535Y006200D02*
X003535Y007160D01*
X003735Y007283D02*
X004140Y007283D01*
X004153Y007402D02*
X003735Y007402D01*
X003915Y007757D02*
X004046Y007757D01*
X004033Y007876D02*
X004046Y007876D01*
X003910Y008035D02*
X003910Y008535D01*
X003786Y008659D01*
X003398Y008659D01*
X003398Y008285D02*
X003398Y008285D01*
X003002Y008285D01*
X003398Y008285D01*
X003022Y007994D02*
X001902Y007994D01*
X002020Y008113D02*
X003014Y008113D01*
X003002Y008231D02*
X002139Y008231D01*
X002257Y008350D02*
X003002Y008350D01*
X003020Y008468D02*
X002376Y008468D01*
X002494Y008587D02*
X003022Y008587D01*
X003022Y008705D02*
X002613Y008705D01*
X002731Y008824D02*
X003022Y008824D01*
X002850Y008942D02*
X004095Y008942D01*
X004046Y008824D02*
X003904Y008824D01*
X004023Y008705D02*
X004046Y008705D01*
X003910Y008035D02*
X003786Y007911D01*
X003660Y007911D01*
X003022Y007876D02*
X002041Y007876D01*
X002120Y007757D02*
X003022Y007757D01*
X003335Y006809D02*
X002099Y006809D01*
X002148Y006691D02*
X003335Y006691D01*
X003335Y006572D02*
X002170Y006572D01*
X002170Y006454D02*
X003257Y006454D01*
X002491Y006335D02*
X002129Y006335D01*
X002063Y006217D02*
X002447Y006217D01*
X002447Y006098D02*
X001938Y006098D01*
X001920Y005980D02*
X002447Y005980D01*
X002447Y005861D02*
X002055Y005861D01*
X002126Y005743D02*
X002483Y005743D01*
X002170Y005624D02*
X004027Y005624D01*
X004027Y005506D02*
X002170Y005506D01*
X002151Y005387D02*
X004027Y005387D01*
X003811Y005269D02*
X002209Y005269D01*
X002105Y004795D02*
X003811Y004795D01*
X004427Y005387D02*
X004677Y005387D01*
X004677Y005269D02*
X004643Y005269D01*
X004643Y005150D02*
X004682Y005150D01*
X004643Y005032D02*
X005880Y005032D01*
X005803Y004913D02*
X005509Y004913D01*
X005504Y005150D02*
X005803Y005150D01*
X006121Y005409D02*
X006160Y005370D01*
X006200Y005410D01*
X008285Y005410D01*
X008410Y005535D01*
X009035Y005910D02*
X008410Y006535D01*
X009200Y007165D02*
X007235Y007165D01*
X007235Y007283D02*
X009200Y007283D01*
X009200Y007402D02*
X008833Y007402D01*
X009038Y007520D02*
X009200Y007520D01*
X009200Y007639D02*
X009173Y007639D01*
X007987Y007402D02*
X007235Y007402D01*
X007235Y007520D02*
X007781Y007520D01*
X007647Y007639D02*
X007235Y007639D01*
X007235Y007757D02*
X007534Y007757D01*
X007466Y007876D02*
X007235Y007876D01*
X007235Y007994D02*
X007398Y007994D01*
X007366Y008113D02*
X007235Y008113D01*
X007235Y008231D02*
X007335Y008231D01*
X007325Y008350D02*
X007235Y008350D01*
X007235Y008468D02*
X007325Y008468D01*
X007334Y008587D02*
X007235Y008587D01*
X007148Y008705D02*
X007366Y008705D01*
X007398Y008824D02*
X007029Y008824D01*
X006911Y008942D02*
X007464Y008942D01*
X007533Y009061D02*
X006779Y009061D01*
X006779Y009179D02*
X007645Y009179D01*
X007035Y008535D02*
X007035Y006035D01*
X006517Y005624D02*
X006435Y005706D01*
X005885Y005706D01*
X005803Y005624D01*
X005509Y005624D01*
X005509Y005609D02*
X005509Y005664D01*
X005427Y005746D01*
X005509Y005609D02*
X005803Y005609D01*
X005803Y005624D01*
X006121Y005409D02*
X005093Y005409D01*
X004677Y005506D02*
X004427Y005506D01*
X004427Y005624D02*
X004677Y005624D01*
X004756Y005743D02*
X004427Y005743D01*
X004643Y004913D02*
X004677Y004913D01*
X004677Y004795D02*
X004643Y004795D01*
X004677Y004676D02*
X002154Y004676D01*
X002170Y004558D02*
X004677Y004558D01*
X004677Y004439D02*
X002170Y004439D01*
X002157Y004321D02*
X006467Y004321D01*
X006585Y004202D02*
X002276Y004202D01*
X002285Y003910D02*
X003285Y003910D01*
X003910Y003285D01*
X003910Y002995D01*
X003995Y002910D01*
X003693Y003219D02*
X003660Y003187D01*
X003580Y003267D01*
X003071Y003267D01*
X002989Y003185D01*
X002989Y003110D01*
X001977Y003110D01*
X002005Y003131D01*
X002064Y003190D01*
X002113Y003257D01*
X002151Y003332D01*
X002177Y003411D01*
X002190Y003493D01*
X002190Y003495D01*
X001700Y003495D01*
X001700Y003575D01*
X002190Y003575D01*
X002190Y003577D01*
X002177Y003659D01*
X002151Y003738D01*
X002128Y003784D01*
X002202Y003710D01*
X003202Y003710D01*
X003693Y003219D01*
X003658Y003254D02*
X003593Y003254D01*
X003540Y003373D02*
X002164Y003373D01*
X002190Y003491D02*
X003421Y003491D01*
X003303Y003610D02*
X002185Y003610D01*
X002184Y003728D02*
X002155Y003728D01*
X002285Y003910D02*
X001660Y004535D01*
X002111Y003254D02*
X003058Y003254D01*
X002989Y003136D02*
X002010Y003136D01*
X002095Y002662D02*
X002989Y002662D01*
X003085Y002543D02*
X002301Y002543D01*
X002430Y002425D02*
X003085Y002425D01*
X003106Y002306D02*
X002540Y002306D01*
X002608Y002188D02*
X003225Y002188D01*
X003343Y002069D02*
X002674Y002069D01*
X002705Y001951D02*
X003462Y001951D01*
X003580Y001832D02*
X002737Y001832D01*
X002745Y001714D02*
X003699Y001714D01*
X003785Y001910D02*
X004227Y001910D01*
X003871Y001595D02*
X002745Y001595D01*
X002734Y001477D02*
X004677Y001477D01*
X004677Y001595D02*
X004582Y001595D01*
X004643Y001714D02*
X004677Y001714D01*
X004643Y001832D02*
X004719Y001832D01*
X005093Y001536D02*
X006121Y001536D01*
X006160Y001575D01*
X007035Y001575D01*
X006697Y001358D02*
X006517Y001358D01*
X006436Y001240D02*
X006777Y001240D01*
X007293Y001240D02*
X007400Y001240D01*
X007468Y001121D02*
X002602Y001121D01*
X002670Y001240D02*
X004719Y001240D01*
X004677Y001358D02*
X002702Y001358D01*
X002533Y001003D02*
X007537Y001003D01*
X007652Y000884D02*
X002418Y000884D01*
X003553Y002425D02*
X004677Y002425D01*
X004682Y002543D02*
X003485Y002543D01*
X004105Y003373D02*
X007880Y003373D01*
X007880Y003491D02*
X003987Y003491D01*
X003868Y003610D02*
X007880Y003610D01*
X007880Y003728D02*
X007322Y003728D01*
X007035Y004035D02*
X007910Y004035D01*
X008410Y004535D01*
X007880Y003254D02*
X004262Y003254D01*
X004331Y003136D02*
X007882Y003136D01*
X007484Y003017D02*
X004331Y003017D01*
X004331Y002899D02*
X007366Y002899D01*
X007247Y002780D02*
X004331Y002780D01*
X004331Y002662D02*
X007129Y002662D01*
X007010Y002543D02*
X006473Y002543D01*
X005847Y002543D02*
X005505Y002543D01*
X005509Y002069D02*
X005803Y002069D01*
X005843Y001951D02*
X005430Y001951D01*
X005467Y001832D02*
X005805Y001832D01*
X005884Y001240D02*
X005467Y001240D01*
X006748Y003728D02*
X003750Y003728D01*
X003631Y003847D02*
X006697Y003847D01*
X006697Y003965D02*
X003513Y003965D01*
X003394Y004084D02*
X006697Y004084D01*
X007035Y004035D02*
X006410Y004660D01*
X006200Y004660D01*
X006160Y004700D01*
X006121Y004661D01*
X005093Y004661D01*
X005509Y004439D02*
X005810Y004439D01*
X005692Y006691D02*
X006835Y006691D01*
X006835Y006809D02*
X005700Y006809D01*
X005344Y006809D02*
X005224Y006809D01*
X005224Y006691D02*
X005344Y006691D01*
X005344Y006928D02*
X005224Y006928D01*
X005224Y007165D02*
X005344Y007165D01*
X005344Y007283D02*
X005224Y007283D01*
X005224Y007402D02*
X005344Y007402D01*
X002521Y009179D02*
X001504Y009179D01*
X001220Y009061D02*
X002403Y009061D01*
X002284Y008942D02*
X001084Y008942D01*
X000994Y008824D02*
X002166Y008824D01*
X002047Y008705D02*
X000928Y008705D01*
X000896Y008587D02*
X001929Y008587D01*
X001810Y008468D02*
X000874Y008468D01*
X000870Y008350D02*
X001692Y008350D01*
X001573Y008231D02*
X000870Y008231D01*
X000870Y008113D02*
X001460Y008113D01*
X001435Y007994D02*
X000870Y007994D01*
X000870Y007876D02*
X001279Y007876D01*
X001200Y007757D02*
X000870Y007757D01*
X000870Y007639D02*
X001151Y007639D01*
X001150Y007520D02*
X000870Y007520D01*
X000870Y007402D02*
X001163Y007402D01*
X001212Y007283D02*
X000870Y007283D01*
X000870Y007165D02*
X001309Y007165D01*
D20*
X002785Y007160D03*
X002785Y006035D03*
X003785Y004160D03*
X003285Y001535D03*
X006410Y003160D03*
X007035Y004035D03*
X007035Y006035D03*
X006535Y007035D03*
X001410Y008785D03*
X007035Y001575D03*
M02*
