%
M48
M72
T01C0.0236
T02C0.0400
T03C0.1250
%
T01
X3285Y1535
X3785Y4160
X2785Y6035
X2785Y7160
X1410Y8785
X6535Y7035
X7035Y6035
X7035Y4035
X6410Y3160
X7035Y1575
T02
X8410Y3535
X8410Y4535
X8410Y5535
X8410Y6535
X1660Y6535
X1660Y5535
X1660Y4535
X1660Y3535
X1660Y7535
T03
X1660Y1660
X8410Y1660
X8410Y8410
M30
