G75*
G70*
%OFA0B0*%
%FSLAX24Y24*%
%IPPOS*%
%LPD*%
%AMOC8*
5,1,8,0,0,1.08239X$1,22.5*
%
%ADD10C,0.0000*%
%ADD11C,0.0740*%
%ADD12R,0.0740X0.0740*%
%ADD13C,0.0120*%
%ADD14R,0.0396X0.0396*%
D10*
X000411Y001660D02*
X000409Y001594D01*
X000411Y001528D01*
X000417Y001462D01*
X000426Y001396D01*
X000439Y001331D01*
X000456Y001266D01*
X000476Y001203D01*
X000500Y001141D01*
X000527Y001081D01*
X000558Y001022D01*
X000592Y000964D01*
X000629Y000909D01*
X000669Y000856D01*
X000712Y000806D01*
X000757Y000757D01*
X000806Y000712D01*
X000856Y000669D01*
X000909Y000629D01*
X000964Y000592D01*
X001022Y000558D01*
X001081Y000527D01*
X001141Y000500D01*
X001203Y000476D01*
X001266Y000456D01*
X001331Y000439D01*
X001396Y000426D01*
X001462Y000417D01*
X001528Y000411D01*
X001594Y000409D01*
X001660Y000411D01*
X001660Y000410D02*
X008410Y000410D01*
X008478Y000412D01*
X008545Y000417D01*
X008612Y000426D01*
X008679Y000439D01*
X008744Y000456D01*
X008809Y000475D01*
X008873Y000499D01*
X008935Y000526D01*
X008996Y000556D01*
X009054Y000589D01*
X009111Y000625D01*
X009166Y000665D01*
X009219Y000707D01*
X009270Y000753D01*
X009317Y000800D01*
X009363Y000851D01*
X009405Y000904D01*
X009445Y000959D01*
X009481Y001016D01*
X009514Y001074D01*
X009544Y001135D01*
X009571Y001197D01*
X009595Y001261D01*
X009614Y001326D01*
X009631Y001391D01*
X009644Y001458D01*
X009653Y001525D01*
X009658Y001592D01*
X009660Y001660D01*
X009660Y008410D01*
X009658Y008478D01*
X009653Y008545D01*
X009644Y008612D01*
X009631Y008679D01*
X009614Y008744D01*
X009595Y008809D01*
X009571Y008873D01*
X009544Y008935D01*
X009514Y008996D01*
X009481Y009054D01*
X009445Y009111D01*
X009405Y009166D01*
X009363Y009219D01*
X009317Y009270D01*
X009270Y009317D01*
X009219Y009363D01*
X009166Y009405D01*
X009111Y009445D01*
X009054Y009481D01*
X008996Y009514D01*
X008935Y009544D01*
X008873Y009571D01*
X008809Y009595D01*
X008744Y009614D01*
X008679Y009631D01*
X008612Y009644D01*
X008545Y009653D01*
X008478Y009658D01*
X008410Y009660D01*
X001660Y009660D01*
X001592Y009658D01*
X001525Y009653D01*
X001458Y009644D01*
X001391Y009631D01*
X001326Y009614D01*
X001261Y009595D01*
X001197Y009571D01*
X001135Y009544D01*
X001074Y009514D01*
X001016Y009481D01*
X000959Y009445D01*
X000904Y009405D01*
X000851Y009363D01*
X000800Y009317D01*
X000753Y009270D01*
X000707Y009219D01*
X000665Y009166D01*
X000625Y009111D01*
X000589Y009054D01*
X000556Y008996D01*
X000526Y008935D01*
X000499Y008873D01*
X000475Y008809D01*
X000456Y008744D01*
X000439Y008679D01*
X000426Y008612D01*
X000417Y008545D01*
X000412Y008478D01*
X000410Y008410D01*
X000410Y001660D01*
X001035Y001660D02*
X001037Y001710D01*
X001043Y001759D01*
X001053Y001808D01*
X001066Y001855D01*
X001084Y001902D01*
X001105Y001947D01*
X001129Y001990D01*
X001157Y002031D01*
X001188Y002070D01*
X001222Y002106D01*
X001259Y002140D01*
X001299Y002170D01*
X001340Y002197D01*
X001384Y002221D01*
X001429Y002241D01*
X001476Y002257D01*
X001524Y002270D01*
X001573Y002279D01*
X001623Y002284D01*
X001672Y002285D01*
X001722Y002282D01*
X001771Y002275D01*
X001820Y002264D01*
X001867Y002250D01*
X001913Y002231D01*
X001958Y002209D01*
X002001Y002184D01*
X002041Y002155D01*
X002079Y002123D01*
X002115Y002089D01*
X002148Y002051D01*
X002177Y002011D01*
X002203Y001969D01*
X002226Y001925D01*
X002245Y001879D01*
X002261Y001832D01*
X002273Y001783D01*
X002281Y001734D01*
X002285Y001685D01*
X002285Y001635D01*
X002281Y001586D01*
X002273Y001537D01*
X002261Y001488D01*
X002245Y001441D01*
X002226Y001395D01*
X002203Y001351D01*
X002177Y001309D01*
X002148Y001269D01*
X002115Y001231D01*
X002079Y001197D01*
X002041Y001165D01*
X002001Y001136D01*
X001958Y001111D01*
X001913Y001089D01*
X001867Y001070D01*
X001820Y001056D01*
X001771Y001045D01*
X001722Y001038D01*
X001672Y001035D01*
X001623Y001036D01*
X001573Y001041D01*
X001524Y001050D01*
X001476Y001063D01*
X001429Y001079D01*
X001384Y001099D01*
X001340Y001123D01*
X001299Y001150D01*
X001259Y001180D01*
X001222Y001214D01*
X001188Y001250D01*
X001157Y001289D01*
X001129Y001330D01*
X001105Y001373D01*
X001084Y001418D01*
X001066Y001465D01*
X001053Y001512D01*
X001043Y001561D01*
X001037Y001610D01*
X001035Y001660D01*
X007785Y001660D02*
X007787Y001710D01*
X007793Y001759D01*
X007803Y001808D01*
X007816Y001855D01*
X007834Y001902D01*
X007855Y001947D01*
X007879Y001990D01*
X007907Y002031D01*
X007938Y002070D01*
X007972Y002106D01*
X008009Y002140D01*
X008049Y002170D01*
X008090Y002197D01*
X008134Y002221D01*
X008179Y002241D01*
X008226Y002257D01*
X008274Y002270D01*
X008323Y002279D01*
X008373Y002284D01*
X008422Y002285D01*
X008472Y002282D01*
X008521Y002275D01*
X008570Y002264D01*
X008617Y002250D01*
X008663Y002231D01*
X008708Y002209D01*
X008751Y002184D01*
X008791Y002155D01*
X008829Y002123D01*
X008865Y002089D01*
X008898Y002051D01*
X008927Y002011D01*
X008953Y001969D01*
X008976Y001925D01*
X008995Y001879D01*
X009011Y001832D01*
X009023Y001783D01*
X009031Y001734D01*
X009035Y001685D01*
X009035Y001635D01*
X009031Y001586D01*
X009023Y001537D01*
X009011Y001488D01*
X008995Y001441D01*
X008976Y001395D01*
X008953Y001351D01*
X008927Y001309D01*
X008898Y001269D01*
X008865Y001231D01*
X008829Y001197D01*
X008791Y001165D01*
X008751Y001136D01*
X008708Y001111D01*
X008663Y001089D01*
X008617Y001070D01*
X008570Y001056D01*
X008521Y001045D01*
X008472Y001038D01*
X008422Y001035D01*
X008373Y001036D01*
X008323Y001041D01*
X008274Y001050D01*
X008226Y001063D01*
X008179Y001079D01*
X008134Y001099D01*
X008090Y001123D01*
X008049Y001150D01*
X008009Y001180D01*
X007972Y001214D01*
X007938Y001250D01*
X007907Y001289D01*
X007879Y001330D01*
X007855Y001373D01*
X007834Y001418D01*
X007816Y001465D01*
X007803Y001512D01*
X007793Y001561D01*
X007787Y001610D01*
X007785Y001660D01*
X007785Y008410D02*
X007787Y008460D01*
X007793Y008509D01*
X007803Y008558D01*
X007816Y008605D01*
X007834Y008652D01*
X007855Y008697D01*
X007879Y008740D01*
X007907Y008781D01*
X007938Y008820D01*
X007972Y008856D01*
X008009Y008890D01*
X008049Y008920D01*
X008090Y008947D01*
X008134Y008971D01*
X008179Y008991D01*
X008226Y009007D01*
X008274Y009020D01*
X008323Y009029D01*
X008373Y009034D01*
X008422Y009035D01*
X008472Y009032D01*
X008521Y009025D01*
X008570Y009014D01*
X008617Y009000D01*
X008663Y008981D01*
X008708Y008959D01*
X008751Y008934D01*
X008791Y008905D01*
X008829Y008873D01*
X008865Y008839D01*
X008898Y008801D01*
X008927Y008761D01*
X008953Y008719D01*
X008976Y008675D01*
X008995Y008629D01*
X009011Y008582D01*
X009023Y008533D01*
X009031Y008484D01*
X009035Y008435D01*
X009035Y008385D01*
X009031Y008336D01*
X009023Y008287D01*
X009011Y008238D01*
X008995Y008191D01*
X008976Y008145D01*
X008953Y008101D01*
X008927Y008059D01*
X008898Y008019D01*
X008865Y007981D01*
X008829Y007947D01*
X008791Y007915D01*
X008751Y007886D01*
X008708Y007861D01*
X008663Y007839D01*
X008617Y007820D01*
X008570Y007806D01*
X008521Y007795D01*
X008472Y007788D01*
X008422Y007785D01*
X008373Y007786D01*
X008323Y007791D01*
X008274Y007800D01*
X008226Y007813D01*
X008179Y007829D01*
X008134Y007849D01*
X008090Y007873D01*
X008049Y007900D01*
X008009Y007930D01*
X007972Y007964D01*
X007938Y008000D01*
X007907Y008039D01*
X007879Y008080D01*
X007855Y008123D01*
X007834Y008168D01*
X007816Y008215D01*
X007803Y008262D01*
X007793Y008311D01*
X007787Y008360D01*
X007785Y008410D01*
D11*
X008410Y006535D03*
X008410Y005535D03*
X008410Y004535D03*
X001660Y004535D03*
X001660Y005535D03*
X001660Y006535D03*
X001660Y007535D03*
X001660Y003535D03*
D12*
X008410Y003535D03*
D13*
X008370Y003575D02*
X008370Y003495D01*
X007880Y003495D01*
X007880Y003144D01*
X007891Y003103D01*
X007912Y003067D01*
X007942Y003037D01*
X007978Y003016D01*
X008019Y003005D01*
X008370Y003005D01*
X008370Y003495D01*
X008450Y003495D01*
X008450Y003575D01*
X008940Y003575D01*
X008940Y003926D01*
X008929Y003967D01*
X008908Y004003D01*
X008878Y004033D01*
X008842Y004054D01*
X008801Y004065D01*
X008608Y004065D01*
X008699Y004103D01*
X008842Y004246D01*
X008920Y004434D01*
X008920Y004636D01*
X008842Y004824D01*
X008699Y004967D01*
X008536Y005035D01*
X008699Y005103D01*
X008842Y005246D01*
X008920Y005434D01*
X008920Y005636D01*
X008842Y005824D01*
X008699Y005967D01*
X008536Y006035D01*
X008699Y006103D01*
X008842Y006246D01*
X008920Y006434D01*
X008920Y006636D01*
X008842Y006824D01*
X008699Y006967D01*
X008511Y007045D01*
X008309Y007045D01*
X008121Y006967D01*
X007978Y006824D01*
X007900Y006636D01*
X007900Y006434D01*
X007978Y006246D01*
X008121Y006103D01*
X008284Y006035D01*
X008121Y005967D01*
X007978Y005824D01*
X007900Y005636D01*
X007900Y005434D01*
X007978Y005246D01*
X008121Y005103D01*
X008284Y005035D01*
X008121Y004967D01*
X007978Y004824D01*
X007900Y004636D01*
X007900Y004434D01*
X007978Y004246D01*
X008121Y004103D01*
X008212Y004065D01*
X008019Y004065D01*
X007978Y004054D01*
X007942Y004033D01*
X007912Y004003D01*
X007891Y003967D01*
X007880Y003926D01*
X007880Y003575D01*
X008370Y003575D01*
X008370Y003491D02*
X008450Y003491D01*
X008450Y003495D02*
X008450Y003005D01*
X008801Y003005D01*
X008842Y003016D01*
X008878Y003037D01*
X008908Y003067D01*
X008929Y003103D01*
X008940Y003144D01*
X008940Y003495D01*
X008450Y003495D01*
X008450Y003373D02*
X008370Y003373D01*
X008370Y003254D02*
X008450Y003254D01*
X008450Y003136D02*
X008370Y003136D01*
X008370Y003017D02*
X008450Y003017D01*
X008553Y002745D02*
X008267Y002745D01*
X007991Y002671D01*
X007744Y002528D01*
X007542Y002326D01*
X007399Y002079D01*
X007341Y001863D01*
X007291Y001913D01*
X007235Y001913D01*
X007235Y003697D01*
X007291Y003697D01*
X007373Y003779D01*
X007373Y004291D01*
X007291Y004373D01*
X007235Y004373D01*
X007235Y005697D01*
X007291Y005697D01*
X007373Y005779D01*
X007373Y006291D01*
X007291Y006373D01*
X006779Y006373D01*
X006697Y006291D01*
X006697Y005779D01*
X006779Y005697D01*
X006835Y005697D01*
X006835Y004373D01*
X006779Y004373D01*
X006697Y004291D01*
X006697Y003779D01*
X006779Y003697D01*
X006835Y003697D01*
X006835Y001913D01*
X006779Y001913D01*
X006697Y001831D01*
X006697Y001319D01*
X006779Y001237D01*
X007291Y001237D01*
X007373Y001319D01*
X007373Y001338D01*
X007399Y001241D01*
X007542Y000994D01*
X007666Y000870D01*
X002404Y000870D01*
X002528Y000994D01*
X002671Y001241D01*
X002745Y001517D01*
X002745Y001803D01*
X002671Y002079D01*
X002528Y002326D01*
X002326Y002528D01*
X002079Y002671D01*
X001803Y002745D01*
X001517Y002745D01*
X001241Y002671D01*
X000994Y002528D01*
X000870Y002404D01*
X000870Y008410D01*
X000877Y008513D01*
X000930Y008712D01*
X001033Y008891D01*
X001179Y009037D01*
X001358Y009140D01*
X001557Y009193D01*
X001660Y009200D01*
X007666Y009200D01*
X007542Y009076D01*
X007399Y008829D01*
X007325Y008553D01*
X007325Y008267D01*
X007399Y007991D01*
X007542Y007744D01*
X007744Y007542D01*
X007991Y007399D01*
X008267Y007325D01*
X008553Y007325D01*
X008829Y007399D01*
X009076Y007542D01*
X009200Y007666D01*
X009200Y002404D01*
X009076Y002528D01*
X008829Y002671D01*
X008553Y002745D01*
X008845Y002662D02*
X009200Y002662D01*
X009200Y002780D02*
X007235Y002780D01*
X007235Y002662D02*
X007975Y002662D01*
X007769Y002543D02*
X007235Y002543D01*
X007235Y002425D02*
X007640Y002425D01*
X007530Y002306D02*
X007235Y002306D01*
X007235Y002188D02*
X007462Y002188D01*
X007396Y002069D02*
X007235Y002069D01*
X007235Y001951D02*
X007365Y001951D01*
X007035Y001575D02*
X007035Y004035D01*
X007035Y006035D01*
X006697Y005980D02*
X003123Y005980D01*
X003123Y006098D02*
X006697Y006098D01*
X006697Y006217D02*
X003123Y006217D01*
X003123Y006291D02*
X003041Y006373D01*
X002529Y006373D01*
X002447Y006291D01*
X002447Y005779D01*
X002529Y005697D01*
X002539Y005697D01*
X002095Y005253D01*
X002170Y005434D01*
X002170Y005636D01*
X002092Y005824D01*
X001949Y005967D01*
X001786Y006035D01*
X001949Y006103D01*
X002092Y006246D01*
X002170Y006434D01*
X002170Y006636D01*
X002092Y006824D01*
X001949Y006967D01*
X001786Y007035D01*
X001949Y007103D01*
X002092Y007246D01*
X002170Y007434D01*
X002170Y007636D01*
X002092Y007824D01*
X001949Y007967D01*
X001761Y008045D01*
X001559Y008045D01*
X001371Y007967D01*
X001228Y007824D01*
X001150Y007636D01*
X001150Y007434D01*
X001228Y007246D01*
X001371Y007103D01*
X001534Y007035D01*
X001371Y006967D01*
X001228Y006824D01*
X001150Y006636D01*
X001150Y006434D01*
X001228Y006246D01*
X001371Y006103D01*
X001534Y006035D01*
X001371Y005967D01*
X001228Y005824D01*
X001150Y005636D01*
X001150Y005434D01*
X001228Y005246D01*
X001371Y005103D01*
X001534Y005035D01*
X001371Y004967D01*
X001228Y004824D01*
X001150Y004636D01*
X001150Y004434D01*
X001228Y004246D01*
X001371Y004103D01*
X001512Y004044D01*
X001457Y004026D01*
X001382Y003988D01*
X001315Y003939D01*
X001256Y003880D01*
X001207Y003813D01*
X001169Y003738D01*
X001143Y003659D01*
X001130Y003577D01*
X001130Y003575D01*
X001620Y003575D01*
X001620Y003495D01*
X001700Y003495D01*
X001700Y003575D01*
X002190Y003575D01*
X002190Y003577D01*
X002177Y003659D01*
X002151Y003738D01*
X002113Y003813D01*
X002064Y003880D01*
X002005Y003939D01*
X001938Y003988D01*
X001863Y004026D01*
X001808Y004044D01*
X001949Y004103D01*
X002092Y004246D01*
X002170Y004434D01*
X002170Y004636D01*
X002133Y004725D01*
X002868Y005460D01*
X002985Y005577D01*
X002985Y005697D01*
X003041Y005697D01*
X003123Y005779D01*
X003123Y006291D01*
X003079Y006335D02*
X006741Y006335D01*
X006697Y005861D02*
X003123Y005861D01*
X003087Y005743D02*
X006733Y005743D01*
X006835Y005624D02*
X002985Y005624D01*
X002913Y005506D02*
X006835Y005506D01*
X006835Y005387D02*
X002795Y005387D01*
X002676Y005269D02*
X006835Y005269D01*
X006835Y005150D02*
X002558Y005150D01*
X002439Y005032D02*
X006835Y005032D01*
X006835Y004913D02*
X002321Y004913D01*
X002202Y004795D02*
X006835Y004795D01*
X006835Y004676D02*
X002154Y004676D01*
X002170Y004558D02*
X006835Y004558D01*
X006835Y004439D02*
X002170Y004439D01*
X002123Y004321D02*
X006726Y004321D01*
X006697Y004202D02*
X002048Y004202D01*
X001903Y004084D02*
X006697Y004084D01*
X006697Y003965D02*
X001970Y003965D01*
X002089Y003847D02*
X006697Y003847D01*
X006748Y003728D02*
X002155Y003728D01*
X002185Y003610D02*
X006835Y003610D01*
X006835Y003491D02*
X002190Y003491D01*
X002190Y003493D02*
X002190Y003495D01*
X001700Y003495D01*
X001700Y003005D01*
X001702Y003005D01*
X001784Y003018D01*
X001863Y003044D01*
X001938Y003082D01*
X002005Y003131D01*
X002064Y003190D01*
X002113Y003257D01*
X002151Y003332D01*
X002177Y003411D01*
X002190Y003493D01*
X002164Y003373D02*
X006835Y003373D01*
X006835Y003254D02*
X002111Y003254D01*
X002010Y003136D02*
X006835Y003136D01*
X006835Y003017D02*
X001778Y003017D01*
X001700Y003017D02*
X001620Y003017D01*
X001620Y003005D02*
X001620Y003495D01*
X001130Y003495D01*
X001130Y003493D01*
X001143Y003411D01*
X001169Y003332D01*
X001207Y003257D01*
X001256Y003190D01*
X001315Y003131D01*
X001382Y003082D01*
X001457Y003044D01*
X001536Y003018D01*
X001618Y003005D01*
X001620Y003005D01*
X001542Y003017D02*
X000870Y003017D01*
X000870Y002899D02*
X006835Y002899D01*
X006835Y002780D02*
X000870Y002780D01*
X000870Y002662D02*
X001225Y002662D01*
X001019Y002543D02*
X000870Y002543D01*
X000870Y002425D02*
X000890Y002425D01*
X000870Y003136D02*
X001310Y003136D01*
X001209Y003254D02*
X000870Y003254D01*
X000870Y003373D02*
X001156Y003373D01*
X001130Y003491D02*
X000870Y003491D01*
X000870Y003610D02*
X001135Y003610D01*
X001165Y003728D02*
X000870Y003728D01*
X000870Y003847D02*
X001231Y003847D01*
X001350Y003965D02*
X000870Y003965D01*
X000870Y004084D02*
X001417Y004084D01*
X001272Y004202D02*
X000870Y004202D01*
X000870Y004321D02*
X001197Y004321D01*
X001150Y004439D02*
X000870Y004439D01*
X000870Y004558D02*
X001150Y004558D01*
X001166Y004676D02*
X000870Y004676D01*
X000870Y004795D02*
X001215Y004795D01*
X001317Y004913D02*
X000870Y004913D01*
X000870Y005032D02*
X001526Y005032D01*
X001324Y005150D02*
X000870Y005150D01*
X000870Y005269D02*
X001218Y005269D01*
X001169Y005387D02*
X000870Y005387D01*
X000870Y005506D02*
X001150Y005506D01*
X001150Y005624D02*
X000870Y005624D01*
X000870Y005743D02*
X001194Y005743D01*
X001265Y005861D02*
X000870Y005861D01*
X000870Y005980D02*
X001400Y005980D01*
X001382Y006098D02*
X000870Y006098D01*
X000870Y006217D02*
X001257Y006217D01*
X001191Y006335D02*
X000870Y006335D01*
X000870Y006454D02*
X001150Y006454D01*
X001150Y006572D02*
X000870Y006572D01*
X000870Y006691D02*
X001172Y006691D01*
X001221Y006809D02*
X000870Y006809D01*
X000870Y006928D02*
X001331Y006928D01*
X001508Y007046D02*
X000870Y007046D01*
X000870Y007165D02*
X001309Y007165D01*
X001212Y007283D02*
X000870Y007283D01*
X000870Y007402D02*
X001163Y007402D01*
X001150Y007520D02*
X000870Y007520D01*
X000870Y007639D02*
X001151Y007639D01*
X001200Y007757D02*
X000870Y007757D01*
X000870Y007876D02*
X001279Y007876D01*
X001435Y007994D02*
X000870Y007994D01*
X000870Y008113D02*
X007366Y008113D01*
X007335Y008231D02*
X000870Y008231D01*
X000870Y008350D02*
X007325Y008350D01*
X007325Y008468D02*
X000874Y008468D01*
X000896Y008587D02*
X007334Y008587D01*
X007366Y008705D02*
X000928Y008705D01*
X000994Y008824D02*
X007398Y008824D01*
X007464Y008942D02*
X001084Y008942D01*
X001220Y009061D02*
X007533Y009061D01*
X007645Y009179D02*
X001504Y009179D01*
X001885Y007994D02*
X007398Y007994D01*
X007466Y007876D02*
X002041Y007876D01*
X002120Y007757D02*
X007534Y007757D01*
X007647Y007639D02*
X002169Y007639D01*
X002170Y007520D02*
X007781Y007520D01*
X007987Y007402D02*
X002157Y007402D01*
X002108Y007283D02*
X009200Y007283D01*
X009200Y007165D02*
X002011Y007165D01*
X001812Y007046D02*
X009200Y007046D01*
X009200Y006928D02*
X008739Y006928D01*
X008849Y006809D02*
X009200Y006809D01*
X009200Y006691D02*
X008898Y006691D01*
X008920Y006572D02*
X009200Y006572D01*
X009200Y006454D02*
X008920Y006454D01*
X008879Y006335D02*
X009200Y006335D01*
X009200Y006217D02*
X008813Y006217D01*
X008688Y006098D02*
X009200Y006098D01*
X009200Y005980D02*
X008670Y005980D01*
X008805Y005861D02*
X009200Y005861D01*
X009200Y005743D02*
X008876Y005743D01*
X008920Y005624D02*
X009200Y005624D01*
X009200Y005506D02*
X008920Y005506D01*
X008901Y005387D02*
X009200Y005387D01*
X009200Y005269D02*
X008852Y005269D01*
X008746Y005150D02*
X009200Y005150D01*
X009200Y005032D02*
X008544Y005032D01*
X008753Y004913D02*
X009200Y004913D01*
X009200Y004795D02*
X008855Y004795D01*
X008904Y004676D02*
X009200Y004676D01*
X009200Y004558D02*
X008920Y004558D01*
X008920Y004439D02*
X009200Y004439D01*
X009200Y004321D02*
X008873Y004321D01*
X008798Y004202D02*
X009200Y004202D01*
X009200Y004084D02*
X008653Y004084D01*
X008930Y003965D02*
X009200Y003965D01*
X009200Y003847D02*
X008940Y003847D01*
X008940Y003728D02*
X009200Y003728D01*
X009200Y003610D02*
X008940Y003610D01*
X008940Y003491D02*
X009200Y003491D01*
X009200Y003373D02*
X008940Y003373D01*
X008940Y003254D02*
X009200Y003254D01*
X009200Y003136D02*
X008938Y003136D01*
X008844Y003017D02*
X009200Y003017D01*
X009200Y002899D02*
X007235Y002899D01*
X007235Y003017D02*
X007976Y003017D01*
X007882Y003136D02*
X007235Y003136D01*
X007235Y003254D02*
X007880Y003254D01*
X007880Y003373D02*
X007235Y003373D01*
X007235Y003491D02*
X007880Y003491D01*
X007880Y003610D02*
X007235Y003610D01*
X007322Y003728D02*
X007880Y003728D01*
X007880Y003847D02*
X007373Y003847D01*
X007373Y003965D02*
X007890Y003965D01*
X008022Y004202D02*
X007373Y004202D01*
X007373Y004084D02*
X008167Y004084D01*
X007947Y004321D02*
X007344Y004321D01*
X007235Y004439D02*
X007900Y004439D01*
X007900Y004558D02*
X007235Y004558D01*
X007235Y004676D02*
X007916Y004676D01*
X007965Y004795D02*
X007235Y004795D01*
X007235Y004913D02*
X008067Y004913D01*
X008276Y005032D02*
X007235Y005032D01*
X007235Y005150D02*
X008074Y005150D01*
X007968Y005269D02*
X007235Y005269D01*
X007235Y005387D02*
X007919Y005387D01*
X007900Y005506D02*
X007235Y005506D01*
X007235Y005624D02*
X007900Y005624D01*
X007944Y005743D02*
X007337Y005743D01*
X007373Y005861D02*
X008015Y005861D01*
X008150Y005980D02*
X007373Y005980D01*
X007373Y006098D02*
X008132Y006098D01*
X008007Y006217D02*
X007373Y006217D01*
X007329Y006335D02*
X007941Y006335D01*
X007900Y006454D02*
X002170Y006454D01*
X002170Y006572D02*
X007900Y006572D01*
X007922Y006691D02*
X002148Y006691D01*
X002099Y006809D02*
X007971Y006809D01*
X008081Y006928D02*
X001989Y006928D01*
X002129Y006335D02*
X002491Y006335D01*
X002447Y006217D02*
X002063Y006217D01*
X001938Y006098D02*
X002447Y006098D01*
X002447Y005980D02*
X001920Y005980D01*
X002055Y005861D02*
X002447Y005861D01*
X002483Y005743D02*
X002126Y005743D01*
X002170Y005624D02*
X002466Y005624D01*
X002348Y005506D02*
X002170Y005506D01*
X002151Y005387D02*
X002229Y005387D01*
X002111Y005269D02*
X002102Y005269D01*
X002785Y005660D02*
X001660Y004535D01*
X001620Y003491D02*
X001700Y003491D01*
X001700Y003373D02*
X001620Y003373D01*
X001620Y003254D02*
X001700Y003254D01*
X001700Y003136D02*
X001620Y003136D01*
X002095Y002662D02*
X006835Y002662D01*
X006835Y002543D02*
X002301Y002543D01*
X002430Y002425D02*
X006835Y002425D01*
X006835Y002306D02*
X002540Y002306D01*
X002608Y002188D02*
X006835Y002188D01*
X006835Y002069D02*
X002674Y002069D01*
X002705Y001951D02*
X006835Y001951D01*
X006697Y001832D02*
X002737Y001832D01*
X002745Y001714D02*
X006697Y001714D01*
X006697Y001595D02*
X002745Y001595D01*
X002734Y001477D02*
X006697Y001477D01*
X006697Y001358D02*
X002702Y001358D01*
X002670Y001240D02*
X006777Y001240D01*
X007293Y001240D02*
X007400Y001240D01*
X007468Y001121D02*
X002602Y001121D01*
X002533Y001003D02*
X007537Y001003D01*
X007652Y000884D02*
X002418Y000884D01*
X002785Y005660D02*
X002785Y006035D01*
X008833Y007402D02*
X009200Y007402D01*
X009200Y007520D02*
X009038Y007520D01*
X009173Y007639D02*
X009200Y007639D01*
X009200Y002543D02*
X009051Y002543D01*
X009180Y002425D02*
X009200Y002425D01*
D14*
X007035Y001575D03*
X006410Y003160D03*
X007035Y004035D03*
X007035Y006035D03*
X006535Y007035D03*
X003785Y004160D03*
X002785Y006035D03*
X002785Y007160D03*
X001410Y008785D03*
X003285Y001535D03*
M02*
