G75*
G70*
%OFA0B0*%
%FSLAX24Y24*%
%IPPOS*%
%LPD*%
%AMOC8*
5,1,8,0,0,1.08239X$1,22.5*
%
%ADD10C,0.0000*%
%ADD11C,0.0080*%
%ADD12C,0.0060*%
%ADD13R,0.0110X0.0005*%
%ADD14R,0.0210X0.0005*%
%ADD15R,0.0280X0.0005*%
%ADD16R,0.0325X0.0005*%
%ADD17R,0.0365X0.0005*%
%ADD18R,0.0410X0.0005*%
%ADD19R,0.0440X0.0005*%
%ADD20R,0.0470X0.0005*%
%ADD21R,0.0505X0.0005*%
%ADD22R,0.0530X0.0005*%
%ADD23R,0.0555X0.0005*%
%ADD24R,0.0580X0.0005*%
%ADD25R,0.0600X0.0005*%
%ADD26R,0.0625X0.0005*%
%ADD27R,0.0645X0.0005*%
%ADD28R,0.0665X0.0005*%
%ADD29R,0.0685X0.0005*%
%ADD30R,0.0705X0.0005*%
%ADD31R,0.0715X0.0005*%
%ADD32R,0.0735X0.0005*%
%ADD33R,0.0755X0.0005*%
%ADD34R,0.0090X0.0005*%
%ADD35R,0.0770X0.0005*%
%ADD36R,0.0190X0.0005*%
%ADD37R,0.0355X0.0005*%
%ADD38R,0.0360X0.0005*%
%ADD39R,0.0260X0.0005*%
%ADD40R,0.0315X0.0005*%
%ADD41R,0.0320X0.0005*%
%ADD42R,0.0295X0.0005*%
%ADD43R,0.0275X0.0005*%
%ADD44R,0.0400X0.0005*%
%ADD45R,0.0265X0.0005*%
%ADD46R,0.0435X0.0005*%
%ADD47R,0.0255X0.0005*%
%ADD48R,0.0465X0.0005*%
%ADD49R,0.0245X0.0005*%
%ADD50R,0.0495X0.0005*%
%ADD51R,0.0235X0.0005*%
%ADD52R,0.0525X0.0005*%
%ADD53R,0.0230X0.0005*%
%ADD54R,0.0240X0.0005*%
%ADD55R,0.0545X0.0005*%
%ADD56R,0.0820X0.0005*%
%ADD57R,0.0220X0.0005*%
%ADD58R,0.0025X0.0005*%
%ADD59R,0.0795X0.0005*%
%ADD60R,0.0215X0.0005*%
%ADD61R,0.0035X0.0005*%
%ADD62R,0.0040X0.0005*%
%ADD63R,0.0800X0.0005*%
%ADD64R,0.0205X0.0005*%
%ADD65R,0.0050X0.0005*%
%ADD66R,0.0805X0.0005*%
%ADD67R,0.0165X0.0005*%
%ADD68R,0.0055X0.0005*%
%ADD69R,0.0200X0.0005*%
%ADD70R,0.0060X0.0005*%
%ADD71R,0.0300X0.0005*%
%ADD72R,0.0195X0.0005*%
%ADD73R,0.0065X0.0005*%
%ADD74R,0.0345X0.0005*%
%ADD75R,0.0070X0.0005*%
%ADD76R,0.0385X0.0005*%
%ADD77R,0.0080X0.0005*%
%ADD78R,0.0425X0.0005*%
%ADD79R,0.0185X0.0005*%
%ADD80R,0.0085X0.0005*%
%ADD81R,0.0635X0.0005*%
%ADD82R,0.0810X0.0005*%
%ADD83R,0.0095X0.0005*%
%ADD84R,0.0335X0.0005*%
%ADD85R,0.0655X0.0005*%
%ADD86R,0.0105X0.0005*%
%ADD87R,0.0290X0.0005*%
%ADD88R,0.0660X0.0005*%
%ADD89R,0.0115X0.0005*%
%ADD90R,0.0285X0.0005*%
%ADD91R,0.0120X0.0005*%
%ADD92R,0.0270X0.0005*%
%ADD93R,0.0675X0.0005*%
%ADD94R,0.0130X0.0005*%
%ADD95R,0.0680X0.0005*%
%ADD96R,0.0135X0.0005*%
%ADD97R,0.0250X0.0005*%
%ADD98R,0.0140X0.0005*%
%ADD99R,0.0180X0.0005*%
%ADD100R,0.0695X0.0005*%
%ADD101R,0.0150X0.0005*%
%ADD102R,0.0160X0.0005*%
%ADD103R,0.0155X0.0005*%
%ADD104R,0.0145X0.0005*%
%ADD105R,0.0700X0.0005*%
%ADD106R,0.0225X0.0005*%
%ADD107R,0.0170X0.0005*%
%ADD108R,0.0100X0.0005*%
%ADD109R,0.0075X0.0005*%
%ADD110R,0.0720X0.0005*%
%ADD111R,0.0725X0.0005*%
%ADD112R,0.0340X0.0005*%
%ADD113R,0.0305X0.0005*%
%ADD114R,0.0175X0.0005*%
%ADD115R,0.0005X0.0005*%
%ADD116R,0.0010X0.0005*%
%ADD117R,0.0015X0.0005*%
%ADD118R,0.0020X0.0005*%
%ADD119R,0.0030X0.0005*%
%ADD120R,0.0125X0.0005*%
%ADD121R,0.0045X0.0005*%
%ADD122R,0.0370X0.0005*%
%ADD123R,0.0375X0.0005*%
%ADD124R,0.0350X0.0005*%
%ADD125R,0.0330X0.0005*%
%ADD126R,0.0485X0.0005*%
%ADD127R,0.0480X0.0005*%
%ADD128R,0.0460X0.0005*%
%ADD129R,0.0445X0.0005*%
%ADD130R,0.0310X0.0005*%
%ADD131R,0.0380X0.0005*%
%ADD132R,0.0415X0.0005*%
%ADD133R,0.0450X0.0005*%
%ADD134R,0.0490X0.0005*%
%ADD135R,0.0965X0.0005*%
%ADD136R,0.0975X0.0005*%
%ADD137R,0.0980X0.0005*%
%ADD138R,0.0990X0.0005*%
%ADD139R,0.1005X0.0005*%
%ADD140R,0.0615X0.0005*%
%ADD141R,0.0640X0.0005*%
%ADD142R,0.0605X0.0005*%
%ADD143R,0.0620X0.0005*%
%ADD144R,0.0590X0.0005*%
%ADD145R,0.0570X0.0005*%
%ADD146R,0.0540X0.0005*%
%ADD147R,0.0515X0.0005*%
%ADD148R,0.0565X0.0005*%
%ADD149R,0.0535X0.0005*%
%ADD150R,0.0395X0.0005*%
%ADD151R,0.0520X0.0005*%
%ADD152R,0.0500X0.0005*%
%ADD153R,0.0430X0.0005*%
%ADD154C,0.0040*%
%ADD155C,0.0059*%
D10*
X000411Y001660D02*
X000409Y001594D01*
X000411Y001528D01*
X000417Y001462D01*
X000426Y001396D01*
X000439Y001331D01*
X000456Y001266D01*
X000476Y001203D01*
X000500Y001141D01*
X000527Y001081D01*
X000558Y001022D01*
X000592Y000964D01*
X000629Y000909D01*
X000669Y000856D01*
X000712Y000806D01*
X000757Y000757D01*
X000806Y000712D01*
X000856Y000669D01*
X000909Y000629D01*
X000964Y000592D01*
X001022Y000558D01*
X001081Y000527D01*
X001141Y000500D01*
X001203Y000476D01*
X001266Y000456D01*
X001331Y000439D01*
X001396Y000426D01*
X001462Y000417D01*
X001528Y000411D01*
X001594Y000409D01*
X001660Y000411D01*
X001660Y000410D02*
X008410Y000410D01*
X008478Y000412D01*
X008545Y000417D01*
X008612Y000426D01*
X008679Y000439D01*
X008744Y000456D01*
X008809Y000475D01*
X008873Y000499D01*
X008935Y000526D01*
X008996Y000556D01*
X009054Y000589D01*
X009111Y000625D01*
X009166Y000665D01*
X009219Y000707D01*
X009270Y000753D01*
X009317Y000800D01*
X009363Y000851D01*
X009405Y000904D01*
X009445Y000959D01*
X009481Y001016D01*
X009514Y001074D01*
X009544Y001135D01*
X009571Y001197D01*
X009595Y001261D01*
X009614Y001326D01*
X009631Y001391D01*
X009644Y001458D01*
X009653Y001525D01*
X009658Y001592D01*
X009660Y001660D01*
X009660Y008410D01*
X009658Y008478D01*
X009653Y008545D01*
X009644Y008612D01*
X009631Y008679D01*
X009614Y008744D01*
X009595Y008809D01*
X009571Y008873D01*
X009544Y008935D01*
X009514Y008996D01*
X009481Y009054D01*
X009445Y009111D01*
X009405Y009166D01*
X009363Y009219D01*
X009317Y009270D01*
X009270Y009317D01*
X009219Y009363D01*
X009166Y009405D01*
X009111Y009445D01*
X009054Y009481D01*
X008996Y009514D01*
X008935Y009544D01*
X008873Y009571D01*
X008809Y009595D01*
X008744Y009614D01*
X008679Y009631D01*
X008612Y009644D01*
X008545Y009653D01*
X008478Y009658D01*
X008410Y009660D01*
X001660Y009660D01*
X001592Y009658D01*
X001525Y009653D01*
X001458Y009644D01*
X001391Y009631D01*
X001326Y009614D01*
X001261Y009595D01*
X001197Y009571D01*
X001135Y009544D01*
X001074Y009514D01*
X001016Y009481D01*
X000959Y009445D01*
X000904Y009405D01*
X000851Y009363D01*
X000800Y009317D01*
X000753Y009270D01*
X000707Y009219D01*
X000665Y009166D01*
X000625Y009111D01*
X000589Y009054D01*
X000556Y008996D01*
X000526Y008935D01*
X000499Y008873D01*
X000475Y008809D01*
X000456Y008744D01*
X000439Y008679D01*
X000426Y008612D01*
X000417Y008545D01*
X000412Y008478D01*
X000410Y008410D01*
X000410Y001660D01*
X001035Y001660D02*
X001037Y001710D01*
X001043Y001759D01*
X001053Y001808D01*
X001066Y001855D01*
X001084Y001902D01*
X001105Y001947D01*
X001129Y001990D01*
X001157Y002031D01*
X001188Y002070D01*
X001222Y002106D01*
X001259Y002140D01*
X001299Y002170D01*
X001340Y002197D01*
X001384Y002221D01*
X001429Y002241D01*
X001476Y002257D01*
X001524Y002270D01*
X001573Y002279D01*
X001623Y002284D01*
X001672Y002285D01*
X001722Y002282D01*
X001771Y002275D01*
X001820Y002264D01*
X001867Y002250D01*
X001913Y002231D01*
X001958Y002209D01*
X002001Y002184D01*
X002041Y002155D01*
X002079Y002123D01*
X002115Y002089D01*
X002148Y002051D01*
X002177Y002011D01*
X002203Y001969D01*
X002226Y001925D01*
X002245Y001879D01*
X002261Y001832D01*
X002273Y001783D01*
X002281Y001734D01*
X002285Y001685D01*
X002285Y001635D01*
X002281Y001586D01*
X002273Y001537D01*
X002261Y001488D01*
X002245Y001441D01*
X002226Y001395D01*
X002203Y001351D01*
X002177Y001309D01*
X002148Y001269D01*
X002115Y001231D01*
X002079Y001197D01*
X002041Y001165D01*
X002001Y001136D01*
X001958Y001111D01*
X001913Y001089D01*
X001867Y001070D01*
X001820Y001056D01*
X001771Y001045D01*
X001722Y001038D01*
X001672Y001035D01*
X001623Y001036D01*
X001573Y001041D01*
X001524Y001050D01*
X001476Y001063D01*
X001429Y001079D01*
X001384Y001099D01*
X001340Y001123D01*
X001299Y001150D01*
X001259Y001180D01*
X001222Y001214D01*
X001188Y001250D01*
X001157Y001289D01*
X001129Y001330D01*
X001105Y001373D01*
X001084Y001418D01*
X001066Y001465D01*
X001053Y001512D01*
X001043Y001561D01*
X001037Y001610D01*
X001035Y001660D01*
X007785Y001660D02*
X007787Y001710D01*
X007793Y001759D01*
X007803Y001808D01*
X007816Y001855D01*
X007834Y001902D01*
X007855Y001947D01*
X007879Y001990D01*
X007907Y002031D01*
X007938Y002070D01*
X007972Y002106D01*
X008009Y002140D01*
X008049Y002170D01*
X008090Y002197D01*
X008134Y002221D01*
X008179Y002241D01*
X008226Y002257D01*
X008274Y002270D01*
X008323Y002279D01*
X008373Y002284D01*
X008422Y002285D01*
X008472Y002282D01*
X008521Y002275D01*
X008570Y002264D01*
X008617Y002250D01*
X008663Y002231D01*
X008708Y002209D01*
X008751Y002184D01*
X008791Y002155D01*
X008829Y002123D01*
X008865Y002089D01*
X008898Y002051D01*
X008927Y002011D01*
X008953Y001969D01*
X008976Y001925D01*
X008995Y001879D01*
X009011Y001832D01*
X009023Y001783D01*
X009031Y001734D01*
X009035Y001685D01*
X009035Y001635D01*
X009031Y001586D01*
X009023Y001537D01*
X009011Y001488D01*
X008995Y001441D01*
X008976Y001395D01*
X008953Y001351D01*
X008927Y001309D01*
X008898Y001269D01*
X008865Y001231D01*
X008829Y001197D01*
X008791Y001165D01*
X008751Y001136D01*
X008708Y001111D01*
X008663Y001089D01*
X008617Y001070D01*
X008570Y001056D01*
X008521Y001045D01*
X008472Y001038D01*
X008422Y001035D01*
X008373Y001036D01*
X008323Y001041D01*
X008274Y001050D01*
X008226Y001063D01*
X008179Y001079D01*
X008134Y001099D01*
X008090Y001123D01*
X008049Y001150D01*
X008009Y001180D01*
X007972Y001214D01*
X007938Y001250D01*
X007907Y001289D01*
X007879Y001330D01*
X007855Y001373D01*
X007834Y001418D01*
X007816Y001465D01*
X007803Y001512D01*
X007793Y001561D01*
X007787Y001610D01*
X007785Y001660D01*
X007785Y008410D02*
X007787Y008460D01*
X007793Y008509D01*
X007803Y008558D01*
X007816Y008605D01*
X007834Y008652D01*
X007855Y008697D01*
X007879Y008740D01*
X007907Y008781D01*
X007938Y008820D01*
X007972Y008856D01*
X008009Y008890D01*
X008049Y008920D01*
X008090Y008947D01*
X008134Y008971D01*
X008179Y008991D01*
X008226Y009007D01*
X008274Y009020D01*
X008323Y009029D01*
X008373Y009034D01*
X008422Y009035D01*
X008472Y009032D01*
X008521Y009025D01*
X008570Y009014D01*
X008617Y009000D01*
X008663Y008981D01*
X008708Y008959D01*
X008751Y008934D01*
X008791Y008905D01*
X008829Y008873D01*
X008865Y008839D01*
X008898Y008801D01*
X008927Y008761D01*
X008953Y008719D01*
X008976Y008675D01*
X008995Y008629D01*
X009011Y008582D01*
X009023Y008533D01*
X009031Y008484D01*
X009035Y008435D01*
X009035Y008385D01*
X009031Y008336D01*
X009023Y008287D01*
X009011Y008238D01*
X008995Y008191D01*
X008976Y008145D01*
X008953Y008101D01*
X008927Y008059D01*
X008898Y008019D01*
X008865Y007981D01*
X008829Y007947D01*
X008791Y007915D01*
X008751Y007886D01*
X008708Y007861D01*
X008663Y007839D01*
X008617Y007820D01*
X008570Y007806D01*
X008521Y007795D01*
X008472Y007788D01*
X008422Y007785D01*
X008373Y007786D01*
X008323Y007791D01*
X008274Y007800D01*
X008226Y007813D01*
X008179Y007829D01*
X008134Y007849D01*
X008090Y007873D01*
X008049Y007900D01*
X008009Y007930D01*
X007972Y007964D01*
X007938Y008000D01*
X007907Y008039D01*
X007879Y008080D01*
X007855Y008123D01*
X007834Y008168D01*
X007816Y008215D01*
X007803Y008262D01*
X007793Y008311D01*
X007787Y008360D01*
X007785Y008410D01*
D11*
X007370Y006745D02*
X007230Y006605D01*
X007090Y006745D01*
X007090Y006325D01*
X006910Y006395D02*
X006840Y006465D01*
X006629Y006465D01*
X006629Y006535D02*
X006629Y006325D01*
X006840Y006325D01*
X006910Y006395D01*
X006840Y006605D02*
X006699Y006605D01*
X006629Y006535D01*
X006449Y006535D02*
X006449Y006395D01*
X006379Y006325D01*
X006169Y006325D01*
X006169Y006255D02*
X006169Y006605D01*
X006379Y006605D01*
X006449Y006535D01*
X006309Y006185D02*
X006239Y006185D01*
X006169Y006255D01*
X005989Y006325D02*
X005849Y006325D01*
X005919Y006325D02*
X005919Y006605D01*
X005989Y006605D01*
X005919Y006745D02*
X005919Y006815D01*
X005682Y006535D02*
X005682Y006395D01*
X005612Y006325D01*
X005402Y006325D01*
X005402Y006605D02*
X005612Y006605D01*
X005682Y006535D01*
X004870Y006605D02*
X004800Y006535D01*
X004660Y006535D01*
X004590Y006465D01*
X004590Y006395D01*
X004660Y006325D01*
X004800Y006325D01*
X004870Y006395D01*
X004870Y006605D02*
X004870Y006675D01*
X004800Y006745D01*
X004660Y006745D01*
X004590Y006675D01*
X004410Y006605D02*
X004340Y006605D01*
X004269Y006535D01*
X004199Y006605D01*
X004129Y006535D01*
X004129Y006325D01*
X004269Y006325D02*
X004269Y006535D01*
X004410Y006605D02*
X004410Y006325D01*
X003949Y006395D02*
X003879Y006325D01*
X003739Y006325D01*
X003669Y006395D01*
X003669Y006535D01*
X003739Y006605D01*
X003879Y006605D01*
X003949Y006535D01*
X003949Y006395D01*
X003489Y006325D02*
X003489Y006745D01*
X003279Y006605D02*
X003489Y006465D01*
X003279Y006325D01*
X003105Y006395D02*
X003105Y006535D01*
X003035Y006605D01*
X002895Y006605D01*
X002825Y006535D01*
X002825Y006465D01*
X003105Y006465D01*
X003105Y006395D02*
X003035Y006325D01*
X002895Y006325D01*
X007370Y006325D02*
X007370Y006745D01*
D12*
X007517Y004905D02*
X007630Y004905D01*
X007573Y004905D02*
X007573Y004565D01*
X007517Y004565D02*
X007630Y004565D01*
X007130Y004622D02*
X007073Y004565D01*
X006960Y004565D01*
X006903Y004622D01*
X007130Y004622D02*
X007130Y004849D01*
X007073Y004905D01*
X006960Y004905D01*
X006903Y004849D01*
X006393Y004849D02*
X006393Y004792D01*
X006337Y004735D01*
X006223Y004735D01*
X006167Y004678D01*
X006167Y004622D01*
X006223Y004565D01*
X006337Y004565D01*
X006393Y004622D01*
X006393Y004849D02*
X006337Y004905D01*
X006223Y004905D01*
X006167Y004849D01*
X006025Y004905D02*
X006025Y004565D01*
X006025Y004735D02*
X005968Y004792D01*
X005855Y004792D01*
X005798Y004735D01*
X005798Y004565D01*
X005657Y004565D02*
X005543Y004565D01*
X005600Y004565D02*
X005600Y004792D01*
X005657Y004792D01*
X005600Y004905D02*
X005600Y004962D01*
X005354Y004849D02*
X005298Y004905D01*
X005354Y004849D02*
X005354Y004565D01*
X005298Y004735D02*
X005411Y004735D01*
X005166Y004792D02*
X005052Y004792D01*
X005109Y004849D02*
X005109Y004622D01*
X005052Y004565D01*
X004920Y004622D02*
X004920Y004735D01*
X004863Y004792D01*
X004750Y004792D01*
X004693Y004735D01*
X004693Y004678D01*
X004920Y004678D01*
X004920Y004622D02*
X004863Y004565D01*
X004750Y004565D01*
X004552Y004565D02*
X004552Y004792D01*
X004552Y004678D02*
X004438Y004792D01*
X004382Y004792D01*
X003877Y004905D02*
X003763Y004905D01*
X003820Y004905D02*
X003820Y004565D01*
X003877Y004565D02*
X003763Y004565D01*
X003631Y004622D02*
X003574Y004565D01*
X003461Y004565D01*
X003404Y004622D01*
X003404Y004678D01*
X003461Y004735D01*
X003574Y004735D01*
X003631Y004792D01*
X003631Y004849D01*
X003574Y004905D01*
X003461Y004905D01*
X003404Y004849D01*
X003263Y004849D02*
X003206Y004905D01*
X003093Y004905D01*
X003036Y004849D01*
X003263Y004622D01*
X003206Y004565D01*
X003093Y004565D01*
X003036Y004622D01*
X003036Y004849D01*
X002894Y004792D02*
X002781Y004905D01*
X002781Y004565D01*
X002894Y004565D02*
X002668Y004565D01*
X003263Y004622D02*
X003263Y004849D01*
X003081Y002530D02*
X002968Y002530D01*
X002911Y002474D01*
X003138Y002247D01*
X003081Y002190D01*
X002968Y002190D01*
X002911Y002247D01*
X002911Y002474D01*
X003081Y002530D02*
X003138Y002474D01*
X003138Y002247D01*
X003265Y002247D02*
X003265Y002190D01*
X003322Y002190D01*
X003322Y002247D01*
X003265Y002247D01*
X003463Y002247D02*
X003520Y002190D01*
X003633Y002190D01*
X003690Y002247D01*
X003577Y002360D02*
X003520Y002360D01*
X003463Y002303D01*
X003463Y002247D01*
X003520Y002360D02*
X003463Y002417D01*
X003463Y002474D01*
X003520Y002530D01*
X003633Y002530D01*
X003690Y002474D01*
X004200Y002417D02*
X004200Y002190D01*
X004200Y002360D02*
X004427Y002360D01*
X004427Y002417D02*
X004313Y002530D01*
X004200Y002417D01*
X004427Y002417D02*
X004427Y002190D01*
X004568Y002247D02*
X004625Y002190D01*
X004738Y002190D01*
X004795Y002247D01*
X004738Y002360D02*
X004625Y002360D01*
X004568Y002303D01*
X004568Y002247D01*
X004738Y002360D02*
X004795Y002417D01*
X004795Y002474D01*
X004738Y002530D01*
X004625Y002530D01*
X004568Y002474D01*
X004937Y002360D02*
X005163Y002360D01*
X005305Y002474D02*
X005305Y002530D01*
X005305Y002474D02*
X005418Y002360D01*
X005418Y002190D01*
X005418Y002360D02*
X005532Y002474D01*
X005532Y002530D01*
X005673Y002474D02*
X005673Y002417D01*
X005730Y002360D01*
X005900Y002360D01*
X005900Y002190D02*
X005730Y002190D01*
X005673Y002247D01*
X005673Y002303D01*
X005730Y002360D01*
X005673Y002474D02*
X005730Y002530D01*
X005900Y002530D01*
X005900Y002190D01*
X006410Y002247D02*
X006467Y002190D01*
X006580Y002190D01*
X006637Y002247D01*
X006637Y002474D01*
X006580Y002530D01*
X006467Y002530D01*
X006410Y002474D01*
X006778Y002474D02*
X006835Y002530D01*
X006948Y002530D01*
X007005Y002474D01*
X007005Y002247D01*
X006948Y002190D01*
X006835Y002190D01*
X006778Y002247D01*
D13*
X005091Y007101D03*
X004986Y007376D03*
X005001Y007386D03*
X005006Y007391D03*
X005011Y007396D03*
X005026Y007406D03*
X005071Y007436D03*
X005086Y007446D03*
X005091Y007451D03*
X005106Y007461D03*
X005121Y007471D03*
X005126Y007476D03*
X005136Y007481D03*
X005141Y007486D03*
X005146Y007491D03*
X005156Y007496D03*
X005161Y007501D03*
X005171Y007506D03*
X005176Y007511D03*
X005191Y007521D03*
X004971Y007751D03*
X004851Y007906D03*
X004851Y007911D03*
X004846Y007916D03*
X004846Y007921D03*
X005376Y008061D03*
X005376Y008066D03*
X005536Y008086D03*
X005536Y008091D03*
X005596Y007616D03*
X005566Y007421D03*
X005221Y008626D03*
X005221Y008631D03*
D14*
X005091Y008826D03*
X005501Y009021D03*
X006441Y008516D03*
X006441Y007976D03*
X006436Y007971D03*
X006181Y007451D03*
X005451Y007271D03*
X005091Y007106D03*
X003986Y007376D03*
X003901Y008406D03*
X004186Y008556D03*
D15*
X004151Y008536D03*
X005501Y009016D03*
X006346Y008566D03*
X005091Y007111D03*
X004816Y007226D03*
D16*
X005089Y007116D03*
X004119Y007316D03*
X005079Y008856D03*
X005499Y009011D03*
D17*
X004094Y008491D03*
X005089Y007121D03*
D18*
X005091Y007126D03*
X006186Y008621D03*
D19*
X006196Y008611D03*
X005091Y007131D03*
D20*
X005091Y007136D03*
X006206Y008596D03*
D21*
X005489Y008981D03*
X005089Y007141D03*
D22*
X005091Y007146D03*
D23*
X005089Y007151D03*
X005464Y008961D03*
D24*
X005446Y008946D03*
X005091Y007156D03*
D25*
X005091Y007161D03*
X005436Y008936D03*
D26*
X005089Y007166D03*
D27*
X005089Y007171D03*
X005734Y007316D03*
D28*
X005764Y007331D03*
X005089Y007176D03*
D29*
X005089Y007181D03*
X005789Y007346D03*
D30*
X005819Y007366D03*
X005089Y007186D03*
D31*
X005089Y007191D03*
X005824Y007371D03*
X005829Y007376D03*
D32*
X005089Y007196D03*
D33*
X005089Y007201D03*
D34*
X004906Y007311D03*
X004971Y007726D03*
X004836Y007956D03*
X004831Y007966D03*
X004831Y007971D03*
X005376Y008086D03*
X005541Y008061D03*
X005596Y007591D03*
X005561Y007426D03*
X004356Y007201D03*
X005216Y008656D03*
D35*
X005091Y007206D03*
D36*
X005171Y007536D03*
X004356Y007206D03*
X003881Y007861D03*
X003876Y007866D03*
X003871Y007876D03*
X003866Y007881D03*
X003861Y007886D03*
X003856Y007891D03*
X003851Y008366D03*
X003856Y008371D03*
X003861Y008376D03*
X004196Y008561D03*
X004321Y008781D03*
X004326Y008786D03*
X004331Y008791D03*
X006221Y007481D03*
X006226Y007486D03*
X006311Y007876D03*
X006471Y008001D03*
X006476Y008006D03*
X006476Y008486D03*
X006471Y008491D03*
D37*
X005304Y007211D03*
X004354Y007221D03*
X004109Y008501D03*
D38*
X004101Y008496D03*
X004051Y008466D03*
X005286Y008916D03*
X006166Y008641D03*
X006286Y008581D03*
X004876Y007211D03*
D39*
X004356Y007211D03*
X004056Y007336D03*
X004161Y008541D03*
X004441Y008861D03*
X005086Y008841D03*
X006111Y007411D03*
D40*
X005334Y007216D03*
X004844Y007216D03*
X005254Y008911D03*
D41*
X006311Y008576D03*
X004356Y007216D03*
X004021Y008461D03*
X004131Y008521D03*
D42*
X004144Y008531D03*
X004004Y008456D03*
X004829Y007221D03*
X005349Y007221D03*
X006329Y008571D03*
D43*
X006134Y008666D03*
X005164Y007561D03*
X005364Y007226D03*
X005619Y007391D03*
X006094Y007406D03*
D44*
X006181Y008626D03*
X004356Y007226D03*
D45*
X004619Y007326D03*
X004799Y007231D03*
X005154Y007551D03*
X005379Y007231D03*
X006359Y008561D03*
X003974Y008446D03*
D46*
X004354Y007231D03*
D47*
X004789Y007236D03*
X005154Y007546D03*
X005389Y007236D03*
X006119Y007416D03*
X006369Y008556D03*
X003964Y008441D03*
D48*
X004354Y007236D03*
X005514Y008996D03*
D49*
X004419Y008851D03*
X003954Y008436D03*
X004779Y007241D03*
X005399Y007241D03*
X006129Y007421D03*
X006344Y007911D03*
X006349Y007916D03*
X006384Y007941D03*
D50*
X004354Y007241D03*
D51*
X004769Y007246D03*
X005409Y007246D03*
X005814Y007286D03*
X006149Y007431D03*
X006334Y007901D03*
X006339Y007906D03*
X006399Y008541D03*
X004409Y008846D03*
X003934Y008426D03*
D52*
X004354Y007246D03*
D53*
X004026Y007351D03*
X004016Y007356D03*
X003926Y008421D03*
X004176Y008551D03*
X004401Y008841D03*
X005416Y007251D03*
X005426Y007256D03*
X006401Y007951D03*
X006411Y007956D03*
X006411Y008536D03*
D54*
X006391Y008546D03*
X006391Y007946D03*
X006141Y007426D03*
X005151Y007566D03*
X004761Y007251D03*
X004626Y007331D03*
X004036Y007346D03*
X003941Y008431D03*
X005086Y008836D03*
D55*
X005469Y008966D03*
X004354Y007251D03*
D56*
X004476Y007256D03*
D57*
X004001Y007366D03*
X003916Y008416D03*
X004386Y008831D03*
X004391Y008836D03*
X005436Y007261D03*
X006166Y007441D03*
X006426Y008526D03*
D58*
X005559Y007976D03*
X005559Y007971D03*
X005384Y008151D03*
X004984Y007626D03*
X004984Y007621D03*
X004879Y007261D03*
X005604Y007521D03*
X004784Y008121D03*
X004784Y008126D03*
X005204Y008741D03*
X005204Y008746D03*
D59*
X004454Y007261D03*
X004444Y007266D03*
D60*
X004634Y007336D03*
X005139Y007571D03*
X005444Y007266D03*
X006174Y007446D03*
X006324Y007891D03*
X006429Y007966D03*
X006434Y008521D03*
X004379Y008826D03*
X003909Y008411D03*
X003994Y007371D03*
D61*
X004794Y008091D03*
X004789Y008101D03*
X004789Y008106D03*
X005384Y008141D03*
X005384Y008146D03*
X005559Y007986D03*
X005559Y007436D03*
X004884Y007266D03*
X005209Y008726D03*
D62*
X005206Y008721D03*
X005381Y008136D03*
X005556Y007996D03*
X005556Y007991D03*
X005601Y007541D03*
X005601Y007536D03*
X004981Y007646D03*
X004981Y007651D03*
X004886Y007271D03*
X004656Y007381D03*
X004796Y008081D03*
X004796Y008086D03*
X004791Y008096D03*
D63*
X004406Y007286D03*
X004416Y007281D03*
X004436Y007271D03*
D64*
X003979Y007381D03*
X003974Y007386D03*
X003894Y008401D03*
X004364Y008816D03*
X004369Y008821D03*
X005464Y007281D03*
X005459Y007276D03*
X006189Y007456D03*
X006319Y007886D03*
X006449Y007981D03*
X006449Y008511D03*
D65*
X005551Y008011D03*
X005381Y008126D03*
X005601Y007556D03*
X005601Y007551D03*
X005601Y007546D03*
X004886Y007276D03*
X004801Y008061D03*
X004801Y008066D03*
X005211Y008706D03*
D66*
X004384Y007301D03*
X004389Y007296D03*
X004399Y007291D03*
X004424Y007276D03*
X004374Y007306D03*
D67*
X003894Y007466D03*
X003889Y007471D03*
X003889Y007476D03*
X003884Y007481D03*
X003879Y007806D03*
X003884Y007816D03*
X003889Y007821D03*
X003889Y007826D03*
X003894Y007836D03*
X003894Y007841D03*
X003794Y007961D03*
X003789Y007966D03*
X003784Y007976D03*
X003789Y008291D03*
X003794Y008301D03*
X003799Y008306D03*
X004209Y008566D03*
X004264Y008711D03*
X004269Y008716D03*
X004269Y008721D03*
X004274Y008726D03*
X004279Y008731D03*
X004939Y007361D03*
X005814Y007281D03*
X006279Y007546D03*
X006284Y007551D03*
X006284Y007556D03*
X006289Y007561D03*
X006294Y007571D03*
X006304Y007866D03*
X006529Y008061D03*
X006534Y008071D03*
X006539Y008076D03*
X006544Y008081D03*
X006549Y008091D03*
X006549Y008401D03*
X006544Y008411D03*
X006539Y008416D03*
X006534Y008421D03*
X006529Y008431D03*
D68*
X005669Y008711D03*
X005674Y008741D03*
X005679Y008771D03*
X005684Y008801D03*
X005689Y008826D03*
X005689Y008831D03*
X005694Y008856D03*
X005694Y008861D03*
X005699Y008886D03*
X005699Y008891D03*
X005719Y009011D03*
X005719Y009016D03*
X005209Y008701D03*
X005379Y008121D03*
X005554Y008016D03*
X004979Y007671D03*
X004979Y007666D03*
X004809Y008041D03*
X004809Y008046D03*
X004804Y008051D03*
X004804Y008056D03*
X004889Y007281D03*
D69*
X004636Y007341D03*
X003966Y007391D03*
X003881Y008391D03*
X003886Y008396D03*
X004356Y008811D03*
X005631Y008916D03*
X006101Y008681D03*
X006456Y008506D03*
X006461Y008501D03*
X006461Y007991D03*
X006456Y007986D03*
X006316Y007881D03*
X006201Y007466D03*
X006196Y007461D03*
X005591Y007401D03*
X005471Y007286D03*
D70*
X005601Y007561D03*
X005601Y007566D03*
X005641Y007671D03*
X005651Y007696D03*
X005661Y007721D03*
X005671Y007746D03*
X005696Y007811D03*
X005706Y007836D03*
X005716Y007861D03*
X005726Y007886D03*
X005751Y007951D03*
X005761Y007976D03*
X005771Y008001D03*
X005781Y008026D03*
X005806Y008091D03*
X005816Y008116D03*
X005826Y008141D03*
X005836Y008166D03*
X005871Y008256D03*
X005881Y008281D03*
X005891Y008306D03*
X005901Y008331D03*
X005926Y008396D03*
X005936Y008421D03*
X005946Y008446D03*
X005956Y008471D03*
X005966Y008496D03*
X005976Y008521D03*
X005981Y008536D03*
X005991Y008561D03*
X005656Y008626D03*
X005656Y008631D03*
X005656Y008636D03*
X005656Y008641D03*
X005656Y008646D03*
X005656Y008651D03*
X005661Y008656D03*
X005661Y008661D03*
X005661Y008666D03*
X005661Y008671D03*
X005661Y008676D03*
X005661Y008681D03*
X005666Y008686D03*
X005666Y008691D03*
X005666Y008696D03*
X005666Y008701D03*
X005666Y008706D03*
X005671Y008716D03*
X005671Y008721D03*
X005671Y008726D03*
X005671Y008731D03*
X005671Y008736D03*
X005676Y008746D03*
X005676Y008751D03*
X005676Y008756D03*
X005676Y008761D03*
X005676Y008766D03*
X005681Y008776D03*
X005681Y008781D03*
X005681Y008786D03*
X005681Y008791D03*
X005681Y008796D03*
X005686Y008806D03*
X005686Y008811D03*
X005686Y008816D03*
X005686Y008821D03*
X005691Y008836D03*
X005691Y008841D03*
X005691Y008846D03*
X005691Y008851D03*
X005696Y008866D03*
X005696Y008871D03*
X005696Y008876D03*
X005696Y008881D03*
X005721Y009021D03*
X005721Y009026D03*
X005651Y008621D03*
X005651Y008616D03*
X005651Y008611D03*
X005651Y008606D03*
X005651Y008601D03*
X005651Y008596D03*
X005646Y008586D03*
X005646Y008581D03*
X005646Y008576D03*
X005646Y008571D03*
X005646Y008566D03*
X005641Y008556D03*
X005641Y008551D03*
X005641Y008546D03*
X005641Y008541D03*
X005636Y008531D03*
X005636Y008526D03*
X005636Y008521D03*
X005636Y008516D03*
X005636Y008511D03*
X005631Y008501D03*
X005631Y008496D03*
X005631Y008491D03*
X005631Y008486D03*
X005631Y008481D03*
X005626Y008471D03*
X005626Y008466D03*
X005626Y008461D03*
X005626Y008456D03*
X005626Y008451D03*
X005621Y008441D03*
X005621Y008436D03*
X005621Y008431D03*
X005621Y008426D03*
X005616Y008416D03*
X005616Y008411D03*
X005616Y008406D03*
X005616Y008401D03*
X005616Y008396D03*
X005611Y008386D03*
X005611Y008381D03*
X005611Y008376D03*
X005611Y008371D03*
X005611Y008366D03*
X005606Y008356D03*
X005606Y008351D03*
X005606Y008346D03*
X005606Y008341D03*
X005606Y008336D03*
X005601Y008326D03*
X005601Y008321D03*
X005601Y008316D03*
X005601Y008311D03*
X005601Y008306D03*
X005596Y008296D03*
X005596Y008291D03*
X005596Y008286D03*
X005596Y008281D03*
X005591Y008271D03*
X005591Y008266D03*
X005591Y008261D03*
X005591Y008256D03*
X005591Y008251D03*
X005586Y008241D03*
X005586Y008236D03*
X005586Y008231D03*
X005586Y008226D03*
X005586Y008221D03*
X005581Y008211D03*
X005581Y008206D03*
X005581Y008201D03*
X005581Y008196D03*
X005581Y008191D03*
X005576Y008181D03*
X005576Y008176D03*
X005576Y008171D03*
X005576Y008166D03*
X005571Y008156D03*
X005571Y008151D03*
X005571Y008146D03*
X005571Y008141D03*
X005571Y008136D03*
X005551Y008021D03*
X005441Y007956D03*
X005451Y007931D03*
X005431Y007981D03*
X005421Y008006D03*
X005381Y008116D03*
X005096Y008191D03*
X005091Y008171D03*
X005086Y008151D03*
X005081Y008126D03*
X005076Y008106D03*
X005071Y008086D03*
X005066Y008061D03*
X005061Y008041D03*
X005056Y008021D03*
X005051Y007996D03*
X005046Y007976D03*
X005041Y007956D03*
X005036Y007931D03*
X005031Y007911D03*
X005026Y007891D03*
X005021Y007866D03*
X005016Y007851D03*
X005016Y007846D03*
X005011Y007836D03*
X005011Y007831D03*
X005011Y007826D03*
X005006Y007811D03*
X005006Y007806D03*
X005006Y007801D03*
X005001Y007791D03*
X005001Y007786D03*
X004976Y007681D03*
X004976Y007676D03*
X004856Y007641D03*
X004856Y007636D03*
X004856Y007631D03*
X004856Y007626D03*
X004861Y007616D03*
X004861Y007611D03*
X004861Y007606D03*
X004861Y007601D03*
X004861Y007596D03*
X004861Y007591D03*
X004861Y007586D03*
X004861Y007581D03*
X004861Y007576D03*
X004866Y007571D03*
X004866Y007566D03*
X004866Y007561D03*
X004866Y007556D03*
X004866Y007551D03*
X004866Y007546D03*
X004866Y007541D03*
X004866Y007536D03*
X004866Y007531D03*
X004866Y007526D03*
X004871Y007521D03*
X004871Y007516D03*
X004871Y007511D03*
X004871Y007506D03*
X004871Y007501D03*
X004871Y007496D03*
X004871Y007491D03*
X004871Y007486D03*
X004871Y007481D03*
X004871Y007476D03*
X004876Y007471D03*
X004876Y007466D03*
X004876Y007461D03*
X004876Y007456D03*
X004876Y007451D03*
X004876Y007446D03*
X004876Y007441D03*
X004876Y007436D03*
X004876Y007431D03*
X004876Y007426D03*
X004881Y007421D03*
X004881Y007416D03*
X004881Y007411D03*
X004881Y007406D03*
X004881Y007401D03*
X004881Y007396D03*
X004881Y007391D03*
X004881Y007386D03*
X004881Y007381D03*
X004881Y007376D03*
X004886Y007371D03*
X004891Y007286D03*
X004851Y007676D03*
X004851Y007681D03*
X004851Y007686D03*
X004846Y007726D03*
X004846Y007731D03*
X004841Y007756D03*
X004841Y007761D03*
X004841Y007766D03*
X004841Y007771D03*
X004841Y007776D03*
X004836Y007786D03*
X004836Y007791D03*
X004836Y007796D03*
X004836Y007801D03*
X004836Y007806D03*
X004836Y007811D03*
X004836Y007816D03*
X004836Y007821D03*
X004831Y007831D03*
X004831Y007836D03*
X004831Y007841D03*
X004831Y007846D03*
X004831Y007851D03*
X004831Y007856D03*
X004811Y008031D03*
X004811Y008036D03*
X005101Y008216D03*
X005106Y008236D03*
X005111Y008256D03*
X005116Y008281D03*
X005121Y008301D03*
X005126Y008321D03*
X005131Y008346D03*
X005136Y008366D03*
X005141Y008386D03*
X005146Y008411D03*
X005151Y008431D03*
X005156Y008451D03*
X005161Y008476D03*
X005166Y008496D03*
X005171Y008516D03*
X005176Y008536D03*
X005176Y008541D03*
X005181Y008561D03*
X005186Y008581D03*
X005211Y008691D03*
X005211Y008696D03*
D71*
X005081Y008851D03*
X004736Y008981D03*
X004096Y007321D03*
X005816Y007291D03*
D72*
X005489Y007301D03*
X005484Y007296D03*
X005479Y007291D03*
X006209Y007471D03*
X006214Y007476D03*
X006469Y007996D03*
X006464Y008496D03*
X004349Y008806D03*
X004344Y008801D03*
X004339Y008796D03*
X003874Y008386D03*
X003869Y008381D03*
X003949Y007406D03*
X003954Y007401D03*
X003959Y007396D03*
D73*
X004814Y008021D03*
X004814Y008026D03*
X004899Y007856D03*
X004904Y007846D03*
X004909Y007836D03*
X004914Y007826D03*
X004919Y007816D03*
X004924Y007806D03*
X004929Y007796D03*
X004934Y007786D03*
X005004Y007796D03*
X005009Y007816D03*
X005009Y007821D03*
X005014Y007841D03*
X005019Y007856D03*
X005019Y007861D03*
X005024Y007871D03*
X005024Y007876D03*
X005024Y007881D03*
X005024Y007886D03*
X005029Y007896D03*
X005029Y007901D03*
X005029Y007906D03*
X005034Y007916D03*
X005034Y007921D03*
X005034Y007926D03*
X005039Y007936D03*
X005039Y007941D03*
X005039Y007946D03*
X005039Y007951D03*
X005044Y007961D03*
X005044Y007966D03*
X005044Y007971D03*
X005049Y007981D03*
X005049Y007986D03*
X005049Y007991D03*
X005054Y008001D03*
X005054Y008006D03*
X005054Y008011D03*
X005054Y008016D03*
X005059Y008026D03*
X005059Y008031D03*
X005059Y008036D03*
X005064Y008046D03*
X005064Y008051D03*
X005064Y008056D03*
X005069Y008066D03*
X005069Y008071D03*
X005069Y008076D03*
X005069Y008081D03*
X005074Y008091D03*
X005074Y008096D03*
X005074Y008101D03*
X005079Y008111D03*
X005079Y008116D03*
X005079Y008121D03*
X005084Y008131D03*
X005084Y008136D03*
X005084Y008141D03*
X005084Y008146D03*
X005089Y008156D03*
X005089Y008161D03*
X005089Y008166D03*
X005094Y008176D03*
X005094Y008181D03*
X005094Y008186D03*
X005099Y008196D03*
X005099Y008201D03*
X005099Y008206D03*
X005099Y008211D03*
X005104Y008221D03*
X005104Y008226D03*
X005104Y008231D03*
X005109Y008241D03*
X005109Y008246D03*
X005109Y008251D03*
X005114Y008261D03*
X005114Y008266D03*
X005114Y008271D03*
X005114Y008276D03*
X005119Y008286D03*
X005119Y008291D03*
X005119Y008296D03*
X005124Y008306D03*
X005124Y008311D03*
X005124Y008316D03*
X005129Y008326D03*
X005129Y008331D03*
X005129Y008336D03*
X005129Y008341D03*
X005134Y008351D03*
X005134Y008356D03*
X005134Y008361D03*
X005139Y008371D03*
X005139Y008376D03*
X005139Y008381D03*
X005144Y008391D03*
X005144Y008396D03*
X005144Y008401D03*
X005144Y008406D03*
X005149Y008416D03*
X005149Y008421D03*
X005149Y008426D03*
X005154Y008436D03*
X005154Y008441D03*
X005154Y008446D03*
X005159Y008456D03*
X005159Y008461D03*
X005159Y008466D03*
X005159Y008471D03*
X005164Y008481D03*
X005164Y008486D03*
X005164Y008491D03*
X005169Y008501D03*
X005169Y008506D03*
X005169Y008511D03*
X005174Y008521D03*
X005174Y008526D03*
X005174Y008531D03*
X005179Y008546D03*
X005179Y008551D03*
X005179Y008556D03*
X005184Y008566D03*
X005184Y008571D03*
X005184Y008576D03*
X005189Y008586D03*
X005189Y008591D03*
X005189Y008596D03*
X005259Y008596D03*
X005264Y008586D03*
X005269Y008576D03*
X005274Y008566D03*
X005279Y008556D03*
X005284Y008546D03*
X005289Y008536D03*
X005294Y008526D03*
X005299Y008516D03*
X005304Y008506D03*
X005309Y008496D03*
X005314Y008486D03*
X005319Y008476D03*
X005324Y008466D03*
X005329Y008456D03*
X005334Y008446D03*
X005339Y008436D03*
X005344Y008426D03*
X005349Y008416D03*
X005354Y008406D03*
X005359Y008396D03*
X005364Y008391D03*
X005364Y008386D03*
X005369Y008381D03*
X005369Y008376D03*
X005374Y008371D03*
X005374Y008366D03*
X005379Y008361D03*
X005379Y008356D03*
X005384Y008351D03*
X005389Y008341D03*
X005394Y008331D03*
X005399Y008321D03*
X005404Y008311D03*
X005409Y008301D03*
X005414Y008291D03*
X005419Y008281D03*
X005424Y008271D03*
X005429Y008261D03*
X005379Y008111D03*
X005414Y008031D03*
X005414Y008026D03*
X005414Y008021D03*
X005419Y008016D03*
X005419Y008011D03*
X005424Y008001D03*
X005424Y007996D03*
X005429Y007991D03*
X005429Y007986D03*
X005434Y007976D03*
X005434Y007971D03*
X005439Y007966D03*
X005439Y007961D03*
X005444Y007951D03*
X005444Y007946D03*
X005449Y007941D03*
X005449Y007936D03*
X005454Y007926D03*
X005454Y007921D03*
X005459Y007916D03*
X005459Y007911D03*
X005459Y007906D03*
X005464Y007901D03*
X005464Y007896D03*
X005469Y007891D03*
X005469Y007886D03*
X005469Y007881D03*
X005474Y007871D03*
X005479Y007861D03*
X005479Y007856D03*
X005484Y007846D03*
X005489Y007836D03*
X005489Y007831D03*
X005494Y007821D03*
X005499Y007811D03*
X005504Y007801D03*
X005504Y007796D03*
X005509Y007786D03*
X005514Y007776D03*
X005514Y007771D03*
X005519Y007761D03*
X005524Y007751D03*
X005524Y007746D03*
X005529Y007736D03*
X005534Y007726D03*
X005539Y007711D03*
X005544Y007701D03*
X005554Y007676D03*
X005634Y007656D03*
X005639Y007661D03*
X005639Y007666D03*
X005644Y007676D03*
X005644Y007681D03*
X005649Y007686D03*
X005649Y007691D03*
X005654Y007701D03*
X005654Y007706D03*
X005659Y007711D03*
X005659Y007716D03*
X005664Y007726D03*
X005664Y007731D03*
X005669Y007736D03*
X005669Y007741D03*
X005674Y007751D03*
X005674Y007756D03*
X005679Y007761D03*
X005679Y007766D03*
X005679Y007771D03*
X005684Y007776D03*
X005684Y007781D03*
X005689Y007786D03*
X005689Y007791D03*
X005689Y007796D03*
X005694Y007801D03*
X005694Y007806D03*
X005699Y007816D03*
X005699Y007821D03*
X005704Y007826D03*
X005704Y007831D03*
X005709Y007841D03*
X005709Y007846D03*
X005714Y007851D03*
X005714Y007856D03*
X005719Y007866D03*
X005719Y007871D03*
X005724Y007876D03*
X005724Y007881D03*
X005729Y007891D03*
X005729Y007896D03*
X005734Y007901D03*
X005734Y007906D03*
X005734Y007911D03*
X005739Y007916D03*
X005739Y007921D03*
X005744Y007926D03*
X005744Y007931D03*
X005744Y007936D03*
X005749Y007941D03*
X005749Y007946D03*
X005754Y007956D03*
X005754Y007961D03*
X005759Y007966D03*
X005759Y007971D03*
X005764Y007981D03*
X005764Y007986D03*
X005769Y007991D03*
X005769Y007996D03*
X005774Y008006D03*
X005774Y008011D03*
X005779Y008016D03*
X005779Y008021D03*
X005784Y008031D03*
X005784Y008036D03*
X005789Y008041D03*
X005789Y008046D03*
X005789Y008051D03*
X005794Y008056D03*
X005794Y008061D03*
X005799Y008066D03*
X005799Y008071D03*
X005799Y008076D03*
X005804Y008081D03*
X005804Y008086D03*
X005809Y008096D03*
X005809Y008101D03*
X005814Y008106D03*
X005814Y008111D03*
X005819Y008121D03*
X005819Y008126D03*
X005824Y008131D03*
X005824Y008136D03*
X005829Y008146D03*
X005829Y008151D03*
X005834Y008156D03*
X005834Y008161D03*
X005839Y008171D03*
X005839Y008176D03*
X005844Y008181D03*
X005844Y008186D03*
X005844Y008191D03*
X005849Y008196D03*
X005849Y008201D03*
X005854Y008206D03*
X005854Y008211D03*
X005854Y008216D03*
X005859Y008221D03*
X005859Y008226D03*
X005864Y008231D03*
X005864Y008236D03*
X005864Y008241D03*
X005869Y008246D03*
X005869Y008251D03*
X005874Y008261D03*
X005874Y008266D03*
X005879Y008271D03*
X005879Y008276D03*
X005884Y008286D03*
X005884Y008291D03*
X005889Y008296D03*
X005889Y008301D03*
X005894Y008311D03*
X005894Y008316D03*
X005899Y008321D03*
X005899Y008326D03*
X005904Y008336D03*
X005904Y008341D03*
X005909Y008346D03*
X005909Y008351D03*
X005909Y008356D03*
X005914Y008361D03*
X005914Y008366D03*
X005919Y008371D03*
X005919Y008376D03*
X005919Y008381D03*
X005924Y008386D03*
X005924Y008391D03*
X005929Y008401D03*
X005929Y008406D03*
X005934Y008411D03*
X005934Y008416D03*
X005939Y008426D03*
X005939Y008431D03*
X005944Y008436D03*
X005944Y008441D03*
X005949Y008451D03*
X005949Y008456D03*
X005954Y008461D03*
X005954Y008466D03*
X005959Y008476D03*
X005959Y008481D03*
X005964Y008486D03*
X005964Y008491D03*
X005969Y008501D03*
X005969Y008506D03*
X005974Y008511D03*
X005974Y008516D03*
X005979Y008526D03*
X005979Y008531D03*
X005984Y008541D03*
X005984Y008546D03*
X005989Y008551D03*
X005989Y008556D03*
X005994Y008566D03*
X005994Y008571D03*
X005999Y008576D03*
X006044Y008696D03*
X006044Y008701D03*
X006049Y008711D03*
X006054Y008726D03*
X006059Y008736D03*
X006064Y008751D03*
X006069Y008761D03*
X006074Y008776D03*
X006084Y008801D03*
X006094Y008826D03*
X006099Y008841D03*
X006104Y008851D03*
X006109Y008866D03*
X006114Y008876D03*
X006119Y008891D03*
X006124Y008901D03*
X006129Y008916D03*
X006134Y008926D03*
X006139Y008941D03*
X006144Y008951D03*
X006149Y008966D03*
X006154Y008976D03*
X006154Y008981D03*
X006159Y008991D03*
X006164Y009001D03*
X006164Y009006D03*
X006164Y009011D03*
X006169Y009016D03*
X006169Y009021D03*
X006174Y009026D03*
X005649Y008591D03*
X005644Y008561D03*
X005639Y008536D03*
X005634Y008506D03*
X005629Y008476D03*
X005624Y008446D03*
X005619Y008421D03*
X005614Y008391D03*
X005609Y008361D03*
X005604Y008331D03*
X005599Y008301D03*
X005594Y008276D03*
X005589Y008246D03*
X005584Y008216D03*
X005579Y008186D03*
X005574Y008161D03*
X005569Y008131D03*
X005549Y008026D03*
X005564Y007431D03*
X004979Y007686D03*
X004854Y007671D03*
X004854Y007666D03*
X004854Y007661D03*
X004854Y007656D03*
X004854Y007651D03*
X004854Y007646D03*
X004859Y007621D03*
X004849Y007691D03*
X004849Y007696D03*
X004849Y007701D03*
X004849Y007706D03*
X004849Y007711D03*
X004849Y007716D03*
X004849Y007721D03*
X004844Y007736D03*
X004844Y007741D03*
X004844Y007746D03*
X004844Y007751D03*
X004839Y007781D03*
X004834Y007826D03*
X004894Y007291D03*
X005214Y008681D03*
X005214Y008686D03*
X005099Y008781D03*
D74*
X005814Y007296D03*
D75*
X005601Y007571D03*
X005601Y007576D03*
X005561Y007656D03*
X005561Y007661D03*
X005556Y007666D03*
X005556Y007671D03*
X005551Y007681D03*
X005551Y007686D03*
X005546Y007691D03*
X005546Y007696D03*
X005541Y007706D03*
X005536Y007716D03*
X005536Y007721D03*
X005531Y007731D03*
X005526Y007741D03*
X005521Y007756D03*
X005516Y007766D03*
X005511Y007781D03*
X005506Y007791D03*
X005501Y007806D03*
X005496Y007816D03*
X005491Y007826D03*
X005486Y007841D03*
X005481Y007851D03*
X005476Y007866D03*
X005471Y007876D03*
X005546Y008031D03*
X005546Y008036D03*
X005496Y008131D03*
X005491Y008141D03*
X005486Y008151D03*
X005481Y008156D03*
X005481Y008161D03*
X005476Y008166D03*
X005476Y008171D03*
X005471Y008176D03*
X005471Y008181D03*
X005466Y008186D03*
X005466Y008191D03*
X005461Y008196D03*
X005461Y008201D03*
X005456Y008206D03*
X005456Y008211D03*
X005451Y008216D03*
X005451Y008221D03*
X005446Y008226D03*
X005446Y008231D03*
X005441Y008236D03*
X005441Y008241D03*
X005436Y008246D03*
X005436Y008251D03*
X005431Y008256D03*
X005426Y008266D03*
X005421Y008276D03*
X005416Y008286D03*
X005411Y008296D03*
X005406Y008306D03*
X005401Y008316D03*
X005396Y008326D03*
X005391Y008336D03*
X005386Y008346D03*
X005356Y008401D03*
X005351Y008411D03*
X005346Y008421D03*
X005341Y008431D03*
X005336Y008441D03*
X005331Y008451D03*
X005326Y008461D03*
X005321Y008471D03*
X005316Y008481D03*
X005311Y008491D03*
X005306Y008501D03*
X005301Y008511D03*
X005296Y008521D03*
X005291Y008531D03*
X005286Y008541D03*
X005281Y008551D03*
X005276Y008561D03*
X005271Y008571D03*
X005266Y008581D03*
X005261Y008591D03*
X005381Y008106D03*
X005316Y007991D03*
X005301Y007966D03*
X005286Y007941D03*
X005281Y007931D03*
X005271Y007916D03*
X005266Y007906D03*
X005261Y007896D03*
X005256Y007891D03*
X005251Y007881D03*
X005246Y007871D03*
X005241Y007866D03*
X005236Y007856D03*
X005231Y007846D03*
X005226Y007836D03*
X005221Y007831D03*
X005221Y007826D03*
X005216Y007821D03*
X005216Y007816D03*
X005211Y007811D03*
X005206Y007806D03*
X005206Y007801D03*
X005201Y007796D03*
X005201Y007791D03*
X005196Y007786D03*
X005191Y007781D03*
X005191Y007776D03*
X005186Y007771D03*
X005186Y007766D03*
X005181Y007761D03*
X005176Y007756D03*
X005176Y007751D03*
X005171Y007746D03*
X005171Y007741D03*
X005166Y007736D03*
X005161Y007731D03*
X005161Y007726D03*
X005156Y007721D03*
X005156Y007716D03*
X005151Y007711D03*
X005146Y007706D03*
X005146Y007701D03*
X005141Y007696D03*
X005141Y007691D03*
X005136Y007686D03*
X005131Y007681D03*
X005131Y007676D03*
X005126Y007671D03*
X005126Y007666D03*
X005121Y007661D03*
X005116Y007656D03*
X005116Y007651D03*
X005111Y007646D03*
X005111Y007641D03*
X005106Y007636D03*
X005101Y007631D03*
X005101Y007626D03*
X005096Y007621D03*
X005096Y007616D03*
X005091Y007611D03*
X005086Y007606D03*
X005086Y007601D03*
X005081Y007596D03*
X004976Y007691D03*
X004976Y007696D03*
X004931Y007791D03*
X004926Y007801D03*
X004921Y007811D03*
X004916Y007821D03*
X004911Y007831D03*
X004906Y007841D03*
X004901Y007851D03*
X004816Y008016D03*
X004896Y007296D03*
X006046Y008706D03*
X006051Y008716D03*
X006051Y008721D03*
X006056Y008731D03*
X006061Y008741D03*
X006061Y008746D03*
X006066Y008756D03*
X006071Y008766D03*
X006071Y008771D03*
X006076Y008781D03*
X006076Y008786D03*
X006081Y008791D03*
X006081Y008796D03*
X006086Y008806D03*
X006086Y008811D03*
X006091Y008816D03*
X006091Y008821D03*
X006096Y008831D03*
X006096Y008836D03*
X006101Y008846D03*
X006106Y008856D03*
X006106Y008861D03*
X006111Y008871D03*
X006116Y008881D03*
X006116Y008886D03*
X006121Y008896D03*
X006126Y008906D03*
X006126Y008911D03*
X006131Y008921D03*
X006136Y008931D03*
X006136Y008936D03*
X006141Y008946D03*
X006146Y008956D03*
X006146Y008961D03*
X006151Y008971D03*
X006156Y008986D03*
X006161Y008996D03*
D76*
X006179Y008631D03*
X005814Y007301D03*
D77*
X005601Y007586D03*
X005546Y008041D03*
X005546Y008046D03*
X005086Y007591D03*
X004901Y007301D03*
X004826Y007986D03*
X004826Y007991D03*
X005216Y008666D03*
X005216Y008671D03*
D78*
X004734Y008966D03*
X006189Y008616D03*
X005814Y007306D03*
D79*
X005494Y007306D03*
X006229Y007491D03*
X006234Y007496D03*
X006484Y008011D03*
X006489Y008016D03*
X006494Y008021D03*
X006494Y008471D03*
X006489Y008476D03*
X006484Y008481D03*
X005094Y008821D03*
X003844Y008361D03*
X003839Y008356D03*
X003834Y007911D03*
X003839Y007906D03*
X003844Y007901D03*
X003849Y007896D03*
X003874Y007871D03*
X003884Y007856D03*
X003934Y007421D03*
X003939Y007416D03*
X003944Y007411D03*
D80*
X004829Y007976D03*
X004829Y007981D03*
X004974Y007721D03*
X004974Y007716D03*
X004974Y007711D03*
X004904Y007306D03*
X005544Y008051D03*
X005544Y008056D03*
X005379Y008091D03*
X005219Y008661D03*
X005099Y008786D03*
D81*
X005724Y007311D03*
D82*
X004366Y007311D03*
D83*
X004909Y007316D03*
X004974Y007731D03*
X004839Y007946D03*
X004839Y007951D03*
X004834Y007961D03*
X005379Y008081D03*
X005539Y008066D03*
X005599Y007596D03*
X005219Y008646D03*
X005219Y008651D03*
X005684Y008901D03*
D84*
X004119Y008511D03*
X004599Y007316D03*
D85*
X005749Y007321D03*
D86*
X005599Y007611D03*
X005539Y008076D03*
X005539Y008081D03*
X005219Y008636D03*
X005219Y008641D03*
X005499Y009026D03*
X006059Y008691D03*
X004969Y007746D03*
X004844Y007926D03*
X004844Y007931D03*
X005114Y007466D03*
X005099Y007456D03*
X005079Y007441D03*
X005064Y007431D03*
X005059Y007426D03*
X005049Y007421D03*
X004994Y007381D03*
X004979Y007371D03*
X004914Y007321D03*
D87*
X004611Y007321D03*
X006081Y007401D03*
X006141Y008661D03*
D88*
X004736Y008921D03*
X005756Y007326D03*
D89*
X005599Y007621D03*
X005184Y007516D03*
X005099Y007586D03*
X005039Y007416D03*
X005034Y007411D03*
X005019Y007401D03*
X004914Y007326D03*
X004654Y007366D03*
X004969Y007756D03*
X004969Y007761D03*
X004969Y007766D03*
X004854Y007896D03*
X004854Y007901D03*
X005534Y008096D03*
D90*
X005084Y008846D03*
X004469Y008871D03*
X003989Y008451D03*
X004084Y007326D03*
D91*
X004916Y007331D03*
X005191Y007526D03*
X004966Y007771D03*
X004856Y007886D03*
X004856Y007891D03*
X005376Y008056D03*
X005536Y008101D03*
X005596Y007631D03*
X005596Y007626D03*
X005221Y008616D03*
X005221Y008621D03*
X005096Y008796D03*
X005671Y008906D03*
D92*
X004451Y008866D03*
X005161Y007556D03*
X004071Y007331D03*
D93*
X005774Y007336D03*
D94*
X005571Y007416D03*
X005596Y007641D03*
X005531Y008116D03*
X005531Y008121D03*
X005226Y008601D03*
X005096Y008801D03*
X004861Y007871D03*
X004866Y007861D03*
X004966Y007781D03*
X004651Y007361D03*
X004921Y007336D03*
D95*
X005781Y007341D03*
X004736Y008916D03*
D96*
X005529Y008126D03*
X005374Y008041D03*
X005374Y008036D03*
X005599Y007646D03*
X004924Y007341D03*
D97*
X004046Y007341D03*
X004166Y008546D03*
X004431Y008856D03*
X004736Y008986D03*
X006126Y008671D03*
X006381Y008551D03*
X006376Y007936D03*
X006366Y007931D03*
X006361Y007926D03*
X006356Y007921D03*
D98*
X005596Y007651D03*
X004926Y007346D03*
D99*
X004641Y007346D03*
X005126Y007576D03*
X005581Y007406D03*
X006241Y007501D03*
X006246Y007506D03*
X006251Y007511D03*
X006496Y008466D03*
X004736Y008991D03*
X004316Y008776D03*
X004311Y008771D03*
X004306Y008766D03*
X004301Y008761D03*
X003836Y008351D03*
X003831Y008346D03*
X003826Y008341D03*
X003831Y007916D03*
X003886Y007851D03*
X003926Y007426D03*
D100*
X005799Y007351D03*
X005804Y007356D03*
D101*
X005576Y007411D03*
X004931Y007351D03*
X003851Y007546D03*
X003846Y007556D03*
X003846Y007561D03*
X003846Y007566D03*
X003841Y007576D03*
X003841Y007581D03*
X003841Y007586D03*
X003836Y007596D03*
X003836Y007601D03*
X003836Y007606D03*
X003836Y007611D03*
X003836Y007616D03*
X003831Y007656D03*
X003831Y007661D03*
X003831Y007666D03*
X003836Y007686D03*
X003836Y007691D03*
X003836Y007696D03*
X003836Y007701D03*
X003836Y007706D03*
X003841Y007711D03*
X003841Y007716D03*
X003841Y007721D03*
X003841Y007726D03*
X003846Y007731D03*
X003846Y007736D03*
X003851Y007751D03*
X003761Y008021D03*
X003756Y008036D03*
X003751Y008046D03*
X003751Y008051D03*
X003751Y008056D03*
X003746Y008066D03*
X003746Y008071D03*
X003746Y008076D03*
X003746Y008081D03*
X003741Y008096D03*
X003741Y008101D03*
X003741Y008106D03*
X003741Y008111D03*
X003741Y008116D03*
X003741Y008121D03*
X003741Y008126D03*
X003741Y008131D03*
X003741Y008136D03*
X003741Y008141D03*
X003741Y008146D03*
X003741Y008151D03*
X003741Y008156D03*
X003741Y008161D03*
X003746Y008181D03*
X003746Y008186D03*
X003746Y008191D03*
X003746Y008196D03*
X003751Y008201D03*
X003751Y008206D03*
X003751Y008211D03*
X003756Y008221D03*
X003756Y008226D03*
X004216Y008571D03*
X004216Y008576D03*
X004216Y008581D03*
X004221Y008596D03*
X004221Y008601D03*
X004221Y008606D03*
X004221Y008611D03*
X004226Y008621D03*
X004226Y008626D03*
X004226Y008631D03*
X004231Y008641D03*
X004236Y008656D03*
X006321Y007821D03*
X006326Y007811D03*
X006326Y007806D03*
X006326Y007801D03*
X006331Y007791D03*
X006331Y007786D03*
X006331Y007781D03*
X006331Y007776D03*
X006336Y007766D03*
X006336Y007761D03*
X006336Y007756D03*
X006336Y007751D03*
X006336Y007746D03*
X006336Y007741D03*
X006336Y007736D03*
X006336Y007731D03*
X006336Y007726D03*
X006336Y007721D03*
X006336Y007716D03*
X006336Y007711D03*
X006336Y007706D03*
X006336Y007701D03*
X006336Y007696D03*
X006336Y007691D03*
X006336Y007686D03*
X006331Y007671D03*
X006331Y007666D03*
X006331Y007661D03*
X006331Y007656D03*
X006326Y007651D03*
X006326Y007646D03*
X006326Y007641D03*
X006321Y007631D03*
X006576Y008151D03*
X006581Y008166D03*
X006581Y008171D03*
X006581Y008176D03*
X006586Y008181D03*
X006586Y008186D03*
X006586Y008191D03*
X006586Y008196D03*
X006591Y008206D03*
X006591Y008211D03*
X006591Y008216D03*
X006591Y008221D03*
X006591Y008226D03*
X006591Y008231D03*
X006591Y008236D03*
X006591Y008241D03*
X006591Y008246D03*
X006591Y008251D03*
X006591Y008256D03*
X006591Y008261D03*
X006591Y008266D03*
X006591Y008271D03*
X006591Y008276D03*
X006591Y008281D03*
X006586Y008296D03*
X006586Y008301D03*
X006586Y008306D03*
X006586Y008311D03*
X006581Y008316D03*
X006581Y008321D03*
X006581Y008326D03*
X006576Y008336D03*
X006576Y008341D03*
D102*
X006566Y008366D03*
X006561Y008376D03*
X006556Y008386D03*
X006551Y008396D03*
X006546Y008406D03*
X006566Y008126D03*
X006561Y008116D03*
X006556Y008106D03*
X006551Y008096D03*
X006546Y008086D03*
X006306Y007856D03*
X006311Y007846D03*
X006306Y007591D03*
X006301Y007581D03*
X006296Y007576D03*
X006291Y007566D03*
X005096Y008811D03*
X004261Y008706D03*
X004256Y008701D03*
X004256Y008696D03*
X004251Y008691D03*
X004251Y008686D03*
X003791Y008296D03*
X003786Y008286D03*
X003781Y008281D03*
X003781Y008276D03*
X003776Y008271D03*
X003771Y008261D03*
X003776Y007991D03*
X003776Y007986D03*
X003781Y007981D03*
X003786Y007971D03*
X003891Y007831D03*
X003881Y007811D03*
X003876Y007801D03*
X003871Y007796D03*
X003866Y007786D03*
X003861Y007776D03*
X003861Y007521D03*
X003866Y007511D03*
X003871Y007501D03*
X003876Y007496D03*
X003876Y007491D03*
X003881Y007486D03*
X004646Y007351D03*
D103*
X004934Y007356D03*
X005184Y007531D03*
X006304Y007586D03*
X006309Y007596D03*
X006309Y007601D03*
X006314Y007606D03*
X006314Y007611D03*
X006319Y007616D03*
X006319Y007621D03*
X006319Y007626D03*
X006324Y007636D03*
X006329Y007796D03*
X006324Y007816D03*
X006319Y007826D03*
X006319Y007831D03*
X006314Y007836D03*
X006314Y007841D03*
X006309Y007851D03*
X006304Y007861D03*
X006554Y008101D03*
X006559Y008111D03*
X006564Y008121D03*
X006569Y008131D03*
X006569Y008136D03*
X006574Y008141D03*
X006574Y008146D03*
X006579Y008156D03*
X006579Y008161D03*
X006579Y008331D03*
X006574Y008346D03*
X006574Y008351D03*
X006569Y008356D03*
X006569Y008361D03*
X006564Y008371D03*
X006559Y008381D03*
X006554Y008391D03*
X004249Y008681D03*
X004244Y008676D03*
X004244Y008671D03*
X004239Y008666D03*
X004239Y008661D03*
X004234Y008651D03*
X004234Y008646D03*
X004229Y008636D03*
X003774Y008266D03*
X003769Y008256D03*
X003769Y008251D03*
X003764Y008246D03*
X003764Y008241D03*
X003759Y008236D03*
X003759Y008231D03*
X003754Y008216D03*
X003749Y008061D03*
X003754Y008041D03*
X003759Y008031D03*
X003759Y008026D03*
X003764Y008016D03*
X003764Y008011D03*
X003769Y008006D03*
X003769Y008001D03*
X003774Y007996D03*
X003869Y007791D03*
X003864Y007781D03*
X003859Y007771D03*
X003859Y007766D03*
X003854Y007761D03*
X003854Y007756D03*
X003849Y007746D03*
X003849Y007741D03*
X003844Y007571D03*
X003849Y007551D03*
X003854Y007541D03*
X003854Y007536D03*
X003859Y007531D03*
X003859Y007526D03*
X003864Y007516D03*
X003869Y007506D03*
D104*
X003839Y007591D03*
X003834Y007621D03*
X003834Y007626D03*
X003834Y007631D03*
X003834Y007636D03*
X003834Y007641D03*
X003834Y007646D03*
X003834Y007651D03*
X003834Y007671D03*
X003834Y007676D03*
X003834Y007681D03*
X003744Y008086D03*
X003744Y008091D03*
X003744Y008166D03*
X003744Y008171D03*
X003744Y008176D03*
X004219Y008586D03*
X004219Y008591D03*
X004224Y008616D03*
X005094Y008806D03*
X005659Y008911D03*
X006589Y008291D03*
X006589Y008286D03*
X006589Y008201D03*
X006334Y007771D03*
X006334Y007681D03*
X006334Y007676D03*
X005114Y007581D03*
X004649Y007356D03*
D105*
X005811Y007361D03*
X004736Y008911D03*
D106*
X005089Y008831D03*
X006114Y008676D03*
X006419Y008531D03*
X006419Y007961D03*
X006329Y007896D03*
X006159Y007436D03*
X005599Y007396D03*
X005164Y007541D03*
X004009Y007361D03*
D107*
X003906Y007451D03*
X003901Y007456D03*
X003896Y007461D03*
X003816Y007931D03*
X003811Y007936D03*
X003806Y007941D03*
X003806Y007946D03*
X003801Y007951D03*
X003796Y007956D03*
X003801Y008311D03*
X003806Y008316D03*
X003811Y008321D03*
X003811Y008326D03*
X004281Y008736D03*
X004286Y008741D03*
X004941Y007366D03*
X006266Y007531D03*
X006271Y007536D03*
X006276Y007541D03*
X006516Y008046D03*
X006521Y008051D03*
X006526Y008056D03*
X006531Y008066D03*
X006531Y008426D03*
X006526Y008436D03*
X006521Y008441D03*
X006516Y008446D03*
X006091Y008686D03*
D108*
X005541Y008071D03*
X005376Y008071D03*
X005376Y008076D03*
X004971Y007741D03*
X004971Y007736D03*
X004841Y007936D03*
X004841Y007941D03*
X004656Y007371D03*
X005596Y007601D03*
X005596Y007606D03*
X005096Y008791D03*
D109*
X005214Y008676D03*
X005694Y008896D03*
X006004Y008581D03*
X005489Y008146D03*
X005494Y008136D03*
X005379Y008101D03*
X005379Y008096D03*
X005339Y008031D03*
X005339Y008026D03*
X005334Y008021D03*
X005329Y008016D03*
X005329Y008011D03*
X005324Y008006D03*
X005324Y008001D03*
X005319Y007996D03*
X005314Y007986D03*
X005309Y007981D03*
X005309Y007976D03*
X005304Y007971D03*
X005299Y007961D03*
X005294Y007956D03*
X005294Y007951D03*
X005289Y007946D03*
X005284Y007936D03*
X005279Y007926D03*
X005274Y007921D03*
X005269Y007911D03*
X005264Y007901D03*
X005254Y007886D03*
X005249Y007876D03*
X005239Y007861D03*
X005234Y007851D03*
X005229Y007841D03*
X004974Y007706D03*
X004974Y007701D03*
X004824Y007996D03*
X004824Y008001D03*
X004819Y008006D03*
X004819Y008011D03*
X004654Y007376D03*
X005599Y007581D03*
D110*
X005836Y007381D03*
D111*
X005844Y007386D03*
D112*
X006041Y007391D03*
X006161Y008646D03*
D113*
X006069Y007396D03*
X004484Y008876D03*
X004139Y008526D03*
D114*
X004289Y008746D03*
X004294Y008751D03*
X004299Y008756D03*
X003824Y008336D03*
X003819Y008331D03*
X003819Y007926D03*
X003824Y007921D03*
X003889Y007846D03*
X003909Y007446D03*
X003914Y007441D03*
X003919Y007436D03*
X003924Y007431D03*
X005094Y008816D03*
X006309Y007871D03*
X006499Y008026D03*
X006504Y008031D03*
X006509Y008036D03*
X006514Y008041D03*
X006514Y008451D03*
X006509Y008456D03*
X006504Y008461D03*
X006264Y007526D03*
X006259Y007521D03*
X006254Y007516D03*
D115*
X005604Y007496D03*
X005564Y007941D03*
X005564Y007946D03*
X004984Y007596D03*
X004769Y008171D03*
X004769Y008176D03*
X005099Y008776D03*
D116*
X005201Y008766D03*
X005201Y008761D03*
X005386Y008171D03*
X005386Y008166D03*
X005561Y007951D03*
X005601Y007501D03*
X004986Y007601D03*
X004986Y007606D03*
X004771Y008161D03*
X004771Y008166D03*
D117*
X004774Y008156D03*
X004774Y008151D03*
X004984Y007616D03*
X004984Y007611D03*
X005604Y007506D03*
X005564Y007956D03*
X005384Y008161D03*
X005204Y008751D03*
X005204Y008756D03*
X004739Y008996D03*
D118*
X004776Y008146D03*
X004776Y008141D03*
X004781Y008136D03*
X004781Y008131D03*
X005386Y008156D03*
X005561Y007966D03*
X005561Y007961D03*
X005601Y007516D03*
X005601Y007511D03*
D119*
X005601Y007526D03*
X005601Y007531D03*
X005556Y007981D03*
X004981Y007641D03*
X004981Y007636D03*
X004981Y007631D03*
X004786Y008111D03*
X004786Y008116D03*
X005206Y008731D03*
X005206Y008736D03*
D120*
X005224Y008611D03*
X005224Y008606D03*
X005534Y008111D03*
X005534Y008106D03*
X005374Y008051D03*
X005374Y008046D03*
X005599Y007636D03*
X004969Y007776D03*
X004864Y007866D03*
X004859Y007876D03*
X004859Y007881D03*
D121*
X004799Y008071D03*
X004799Y008076D03*
X004979Y007661D03*
X004979Y007656D03*
X005384Y008131D03*
X005554Y008006D03*
X005554Y008001D03*
X005209Y008711D03*
X005209Y008716D03*
D122*
X004086Y008486D03*
X004071Y008476D03*
X004061Y008471D03*
D123*
X004079Y008481D03*
X006174Y008636D03*
D124*
X005076Y008861D03*
X004736Y008976D03*
X004111Y008506D03*
D125*
X004126Y008516D03*
X004501Y008881D03*
X006156Y008651D03*
D126*
X006214Y008586D03*
X005504Y008991D03*
D127*
X006211Y008591D03*
D128*
X006201Y008601D03*
X004736Y008961D03*
D129*
X006199Y008606D03*
D130*
X006151Y008656D03*
D131*
X005071Y008866D03*
D132*
X005069Y008871D03*
D133*
X005061Y008876D03*
X005521Y009001D03*
D134*
X005051Y008881D03*
X004736Y008956D03*
D135*
X004829Y008886D03*
D136*
X004839Y008891D03*
D137*
X004851Y008896D03*
D138*
X004866Y008901D03*
D139*
X004884Y008906D03*
D140*
X005424Y008921D03*
X005429Y008926D03*
D141*
X004736Y008926D03*
D142*
X005434Y008931D03*
D143*
X004736Y008931D03*
D144*
X004736Y008936D03*
X005441Y008941D03*
D145*
X005451Y008951D03*
X004736Y008941D03*
D146*
X004736Y008946D03*
D147*
X004734Y008951D03*
D148*
X005459Y008956D03*
D149*
X005474Y008971D03*
D150*
X004734Y008971D03*
D151*
X005481Y008976D03*
D152*
X005496Y008986D03*
D153*
X005531Y009006D03*
D154*
X007290Y005005D02*
X007357Y005005D01*
X007390Y004972D01*
X007290Y005005D02*
X007257Y004972D01*
X007257Y004938D01*
X007390Y004805D01*
X007257Y004805D01*
D155*
X005621Y003357D02*
X005621Y003213D01*
X005431Y003194D01*
X005410Y003130D01*
X005379Y003070D01*
X005500Y002921D01*
X005399Y002820D01*
X005250Y002941D01*
X005190Y002910D01*
X005106Y003114D01*
X005143Y003136D01*
X005175Y003165D01*
X005199Y003201D01*
X005214Y003242D01*
X005220Y003285D01*
X005214Y003329D01*
X005199Y003370D01*
X005174Y003407D01*
X005141Y003436D01*
X005102Y003457D01*
X005059Y003468D01*
X005015Y003468D01*
X004972Y003458D01*
X004933Y003438D01*
X004899Y003410D01*
X004873Y003374D01*
X004857Y003333D01*
X004851Y003289D01*
X004855Y003245D01*
X004870Y003203D01*
X004894Y003166D01*
X004926Y003136D01*
X004964Y003114D01*
X004880Y002910D01*
X004820Y002941D01*
X004671Y002820D01*
X004570Y002921D01*
X004691Y003070D01*
X004660Y003130D01*
X004639Y003194D01*
X004449Y003213D01*
X004449Y003357D01*
X004639Y003376D01*
X004660Y003440D01*
X004691Y003500D01*
X004570Y003649D01*
X004671Y003750D01*
X004820Y003629D01*
X004880Y003660D01*
X004944Y003681D01*
X004963Y003871D01*
X005107Y003871D01*
X005126Y003681D01*
X005190Y003660D01*
X005250Y003629D01*
X005399Y003750D01*
X005500Y003649D01*
X005379Y003500D01*
X005410Y003440D01*
X005431Y003376D01*
X005621Y003357D01*
X005621Y003345D02*
X005208Y003345D01*
X005219Y003288D02*
X005621Y003288D01*
X005621Y003230D02*
X005210Y003230D01*
X005180Y003173D02*
X005424Y003173D01*
X005403Y003115D02*
X005107Y003115D01*
X005129Y003058D02*
X005389Y003058D01*
X005436Y003000D02*
X005153Y003000D01*
X005177Y002942D02*
X005483Y002942D01*
X005464Y002885D02*
X005319Y002885D01*
X005389Y002827D02*
X005406Y002827D01*
X004941Y003058D02*
X004681Y003058D01*
X004667Y003115D02*
X004963Y003115D01*
X004890Y003173D02*
X004646Y003173D01*
X004634Y003000D02*
X004917Y003000D01*
X004893Y002942D02*
X004587Y002942D01*
X004606Y002885D02*
X004751Y002885D01*
X004681Y002827D02*
X004664Y002827D01*
X004860Y003230D02*
X004449Y003230D01*
X004449Y003288D02*
X004851Y003288D01*
X004862Y003345D02*
X004449Y003345D01*
X004648Y003403D02*
X004894Y003403D01*
X004981Y003460D02*
X004670Y003460D01*
X004676Y003518D02*
X005394Y003518D01*
X005400Y003460D02*
X005088Y003460D01*
X005176Y003403D02*
X005422Y003403D01*
X005441Y003576D02*
X004629Y003576D01*
X004582Y003633D02*
X004815Y003633D01*
X004827Y003633D02*
X005243Y003633D01*
X005255Y003633D02*
X005488Y003633D01*
X005458Y003691D02*
X005325Y003691D01*
X005396Y003748D02*
X005401Y003748D01*
X005119Y003748D02*
X004951Y003748D01*
X004945Y003691D02*
X005125Y003691D01*
X005114Y003806D02*
X004956Y003806D01*
X004962Y003863D02*
X005108Y003863D01*
X004745Y003691D02*
X004612Y003691D01*
X004669Y003748D02*
X004674Y003748D01*
M02*
