G75*
G70*
%OFA0B0*%
%FSLAX24Y24*%
%IPPOS*%
%LPD*%
%AMOC8*
5,1,8,0,0,1.08239X$1,22.5*
%
%ADD10C,0.0000*%
%ADD11C,0.0740*%
%ADD12R,0.0740X0.0740*%
%ADD13C,0.0120*%
%ADD14R,0.0356X0.0356*%
D10*
X000411Y001660D02*
X000409Y001594D01*
X000411Y001528D01*
X000417Y001462D01*
X000426Y001396D01*
X000439Y001331D01*
X000456Y001266D01*
X000476Y001203D01*
X000500Y001141D01*
X000527Y001081D01*
X000558Y001022D01*
X000592Y000964D01*
X000629Y000909D01*
X000669Y000856D01*
X000712Y000806D01*
X000757Y000757D01*
X000806Y000712D01*
X000856Y000669D01*
X000909Y000629D01*
X000964Y000592D01*
X001022Y000558D01*
X001081Y000527D01*
X001141Y000500D01*
X001203Y000476D01*
X001266Y000456D01*
X001331Y000439D01*
X001396Y000426D01*
X001462Y000417D01*
X001528Y000411D01*
X001594Y000409D01*
X001660Y000411D01*
X001660Y000410D02*
X008410Y000410D01*
X008478Y000412D01*
X008545Y000417D01*
X008612Y000426D01*
X008679Y000439D01*
X008744Y000456D01*
X008809Y000475D01*
X008873Y000499D01*
X008935Y000526D01*
X008996Y000556D01*
X009054Y000589D01*
X009111Y000625D01*
X009166Y000665D01*
X009219Y000707D01*
X009270Y000753D01*
X009317Y000800D01*
X009363Y000851D01*
X009405Y000904D01*
X009445Y000959D01*
X009481Y001016D01*
X009514Y001074D01*
X009544Y001135D01*
X009571Y001197D01*
X009595Y001261D01*
X009614Y001326D01*
X009631Y001391D01*
X009644Y001458D01*
X009653Y001525D01*
X009658Y001592D01*
X009660Y001660D01*
X009660Y008410D01*
X009658Y008478D01*
X009653Y008545D01*
X009644Y008612D01*
X009631Y008679D01*
X009614Y008744D01*
X009595Y008809D01*
X009571Y008873D01*
X009544Y008935D01*
X009514Y008996D01*
X009481Y009054D01*
X009445Y009111D01*
X009405Y009166D01*
X009363Y009219D01*
X009317Y009270D01*
X009270Y009317D01*
X009219Y009363D01*
X009166Y009405D01*
X009111Y009445D01*
X009054Y009481D01*
X008996Y009514D01*
X008935Y009544D01*
X008873Y009571D01*
X008809Y009595D01*
X008744Y009614D01*
X008679Y009631D01*
X008612Y009644D01*
X008545Y009653D01*
X008478Y009658D01*
X008410Y009660D01*
X001660Y009660D01*
X001592Y009658D01*
X001525Y009653D01*
X001458Y009644D01*
X001391Y009631D01*
X001326Y009614D01*
X001261Y009595D01*
X001197Y009571D01*
X001135Y009544D01*
X001074Y009514D01*
X001016Y009481D01*
X000959Y009445D01*
X000904Y009405D01*
X000851Y009363D01*
X000800Y009317D01*
X000753Y009270D01*
X000707Y009219D01*
X000665Y009166D01*
X000625Y009111D01*
X000589Y009054D01*
X000556Y008996D01*
X000526Y008935D01*
X000499Y008873D01*
X000475Y008809D01*
X000456Y008744D01*
X000439Y008679D01*
X000426Y008612D01*
X000417Y008545D01*
X000412Y008478D01*
X000410Y008410D01*
X000410Y001660D01*
X001035Y001660D02*
X001037Y001710D01*
X001043Y001759D01*
X001053Y001808D01*
X001066Y001855D01*
X001084Y001902D01*
X001105Y001947D01*
X001129Y001990D01*
X001157Y002031D01*
X001188Y002070D01*
X001222Y002106D01*
X001259Y002140D01*
X001299Y002170D01*
X001340Y002197D01*
X001384Y002221D01*
X001429Y002241D01*
X001476Y002257D01*
X001524Y002270D01*
X001573Y002279D01*
X001623Y002284D01*
X001672Y002285D01*
X001722Y002282D01*
X001771Y002275D01*
X001820Y002264D01*
X001867Y002250D01*
X001913Y002231D01*
X001958Y002209D01*
X002001Y002184D01*
X002041Y002155D01*
X002079Y002123D01*
X002115Y002089D01*
X002148Y002051D01*
X002177Y002011D01*
X002203Y001969D01*
X002226Y001925D01*
X002245Y001879D01*
X002261Y001832D01*
X002273Y001783D01*
X002281Y001734D01*
X002285Y001685D01*
X002285Y001635D01*
X002281Y001586D01*
X002273Y001537D01*
X002261Y001488D01*
X002245Y001441D01*
X002226Y001395D01*
X002203Y001351D01*
X002177Y001309D01*
X002148Y001269D01*
X002115Y001231D01*
X002079Y001197D01*
X002041Y001165D01*
X002001Y001136D01*
X001958Y001111D01*
X001913Y001089D01*
X001867Y001070D01*
X001820Y001056D01*
X001771Y001045D01*
X001722Y001038D01*
X001672Y001035D01*
X001623Y001036D01*
X001573Y001041D01*
X001524Y001050D01*
X001476Y001063D01*
X001429Y001079D01*
X001384Y001099D01*
X001340Y001123D01*
X001299Y001150D01*
X001259Y001180D01*
X001222Y001214D01*
X001188Y001250D01*
X001157Y001289D01*
X001129Y001330D01*
X001105Y001373D01*
X001084Y001418D01*
X001066Y001465D01*
X001053Y001512D01*
X001043Y001561D01*
X001037Y001610D01*
X001035Y001660D01*
X007785Y001660D02*
X007787Y001710D01*
X007793Y001759D01*
X007803Y001808D01*
X007816Y001855D01*
X007834Y001902D01*
X007855Y001947D01*
X007879Y001990D01*
X007907Y002031D01*
X007938Y002070D01*
X007972Y002106D01*
X008009Y002140D01*
X008049Y002170D01*
X008090Y002197D01*
X008134Y002221D01*
X008179Y002241D01*
X008226Y002257D01*
X008274Y002270D01*
X008323Y002279D01*
X008373Y002284D01*
X008422Y002285D01*
X008472Y002282D01*
X008521Y002275D01*
X008570Y002264D01*
X008617Y002250D01*
X008663Y002231D01*
X008708Y002209D01*
X008751Y002184D01*
X008791Y002155D01*
X008829Y002123D01*
X008865Y002089D01*
X008898Y002051D01*
X008927Y002011D01*
X008953Y001969D01*
X008976Y001925D01*
X008995Y001879D01*
X009011Y001832D01*
X009023Y001783D01*
X009031Y001734D01*
X009035Y001685D01*
X009035Y001635D01*
X009031Y001586D01*
X009023Y001537D01*
X009011Y001488D01*
X008995Y001441D01*
X008976Y001395D01*
X008953Y001351D01*
X008927Y001309D01*
X008898Y001269D01*
X008865Y001231D01*
X008829Y001197D01*
X008791Y001165D01*
X008751Y001136D01*
X008708Y001111D01*
X008663Y001089D01*
X008617Y001070D01*
X008570Y001056D01*
X008521Y001045D01*
X008472Y001038D01*
X008422Y001035D01*
X008373Y001036D01*
X008323Y001041D01*
X008274Y001050D01*
X008226Y001063D01*
X008179Y001079D01*
X008134Y001099D01*
X008090Y001123D01*
X008049Y001150D01*
X008009Y001180D01*
X007972Y001214D01*
X007938Y001250D01*
X007907Y001289D01*
X007879Y001330D01*
X007855Y001373D01*
X007834Y001418D01*
X007816Y001465D01*
X007803Y001512D01*
X007793Y001561D01*
X007787Y001610D01*
X007785Y001660D01*
X007785Y008410D02*
X007787Y008460D01*
X007793Y008509D01*
X007803Y008558D01*
X007816Y008605D01*
X007834Y008652D01*
X007855Y008697D01*
X007879Y008740D01*
X007907Y008781D01*
X007938Y008820D01*
X007972Y008856D01*
X008009Y008890D01*
X008049Y008920D01*
X008090Y008947D01*
X008134Y008971D01*
X008179Y008991D01*
X008226Y009007D01*
X008274Y009020D01*
X008323Y009029D01*
X008373Y009034D01*
X008422Y009035D01*
X008472Y009032D01*
X008521Y009025D01*
X008570Y009014D01*
X008617Y009000D01*
X008663Y008981D01*
X008708Y008959D01*
X008751Y008934D01*
X008791Y008905D01*
X008829Y008873D01*
X008865Y008839D01*
X008898Y008801D01*
X008927Y008761D01*
X008953Y008719D01*
X008976Y008675D01*
X008995Y008629D01*
X009011Y008582D01*
X009023Y008533D01*
X009031Y008484D01*
X009035Y008435D01*
X009035Y008385D01*
X009031Y008336D01*
X009023Y008287D01*
X009011Y008238D01*
X008995Y008191D01*
X008976Y008145D01*
X008953Y008101D01*
X008927Y008059D01*
X008898Y008019D01*
X008865Y007981D01*
X008829Y007947D01*
X008791Y007915D01*
X008751Y007886D01*
X008708Y007861D01*
X008663Y007839D01*
X008617Y007820D01*
X008570Y007806D01*
X008521Y007795D01*
X008472Y007788D01*
X008422Y007785D01*
X008373Y007786D01*
X008323Y007791D01*
X008274Y007800D01*
X008226Y007813D01*
X008179Y007829D01*
X008134Y007849D01*
X008090Y007873D01*
X008049Y007900D01*
X008009Y007930D01*
X007972Y007964D01*
X007938Y008000D01*
X007907Y008039D01*
X007879Y008080D01*
X007855Y008123D01*
X007834Y008168D01*
X007816Y008215D01*
X007803Y008262D01*
X007793Y008311D01*
X007787Y008360D01*
X007785Y008410D01*
D11*
X008410Y006535D03*
X008410Y005535D03*
X008410Y004535D03*
X001660Y004535D03*
X001660Y005535D03*
X001660Y006535D03*
X001660Y007535D03*
X001660Y003535D03*
D12*
X008410Y003535D03*
D13*
X000926Y000884D02*
X000870Y000884D01*
X000776Y000978D02*
X000637Y001229D01*
X000572Y001508D01*
X000570Y001639D01*
X000570Y001656D01*
X000573Y001718D01*
X000570Y001721D01*
X000570Y008410D01*
X000583Y008581D01*
X000689Y008905D01*
X000889Y009181D01*
X001165Y009381D01*
X001489Y009487D01*
X001660Y009500D01*
X008410Y009500D01*
X008581Y009487D01*
X008905Y009381D01*
X009065Y009265D01*
X008822Y009405D01*
X008551Y009478D01*
X008269Y009478D01*
X007998Y009405D01*
X007754Y009264D01*
X007556Y009066D01*
X007415Y008822D01*
X007342Y008551D01*
X007342Y008269D01*
X007415Y007998D01*
X007556Y007754D01*
X007754Y007556D01*
X007998Y007415D01*
X008269Y007342D01*
X008551Y007342D01*
X008822Y007415D01*
X009066Y007556D01*
X009264Y007754D01*
X009405Y007998D01*
X009478Y008269D01*
X009478Y008551D01*
X009405Y008822D01*
X009265Y009065D01*
X009381Y008905D01*
X009487Y008581D01*
X009500Y008410D01*
X009500Y001660D01*
X009487Y001489D01*
X009381Y001165D01*
X009265Y001005D01*
X009405Y001248D01*
X009478Y001519D01*
X009478Y001801D01*
X009405Y002072D01*
X009264Y002316D01*
X009066Y002514D01*
X008822Y002655D01*
X008551Y002728D01*
X008269Y002728D01*
X007998Y002655D01*
X007754Y002514D01*
X007556Y002316D01*
X007415Y002072D01*
X007342Y001801D01*
X007342Y001519D01*
X007415Y001248D01*
X007556Y001004D01*
X007754Y000806D01*
X007998Y000665D01*
X008269Y000592D01*
X008551Y000592D01*
X008822Y000665D01*
X009065Y000805D01*
X008905Y000689D01*
X008581Y000583D01*
X008410Y000570D01*
X001721Y000570D01*
X001718Y000573D01*
X001656Y000570D01*
X001639Y000570D01*
X001508Y000572D01*
X001229Y000637D01*
X000978Y000776D01*
X000776Y000978D01*
X000762Y001003D02*
X000807Y001003D01*
X000806Y001004D02*
X001004Y000806D01*
X001248Y000665D01*
X001519Y000592D01*
X001801Y000592D01*
X002072Y000665D01*
X002316Y000806D01*
X002514Y001004D01*
X002655Y001248D01*
X002728Y001519D01*
X002728Y001801D01*
X002655Y002072D01*
X002514Y002316D01*
X002316Y002514D01*
X002072Y002655D01*
X001801Y002728D01*
X001519Y002728D01*
X001248Y002655D01*
X001004Y002514D01*
X000806Y002316D01*
X000665Y002072D01*
X000592Y001801D01*
X000592Y001519D01*
X000665Y001248D01*
X000806Y001004D01*
X000738Y001121D02*
X000696Y001121D01*
X000670Y001240D02*
X000634Y001240D01*
X000635Y001358D02*
X000607Y001358D01*
X000604Y001477D02*
X000580Y001477D01*
X000571Y001595D02*
X000592Y001595D01*
X000592Y001714D02*
X000573Y001714D01*
X000570Y001832D02*
X000601Y001832D01*
X000570Y001951D02*
X000632Y001951D01*
X000664Y002069D02*
X000570Y002069D01*
X000570Y002188D02*
X000732Y002188D01*
X000800Y002306D02*
X000570Y002306D01*
X000570Y002425D02*
X000914Y002425D01*
X001054Y002543D02*
X000570Y002543D01*
X000570Y002662D02*
X001272Y002662D01*
X001457Y003044D02*
X001536Y003018D01*
X001618Y003005D01*
X001620Y003005D01*
X001620Y003495D01*
X001700Y003495D01*
X001700Y003575D01*
X002190Y003575D01*
X002190Y003577D01*
X002177Y003659D01*
X002151Y003738D01*
X002113Y003813D01*
X002064Y003880D01*
X002005Y003939D01*
X001938Y003988D01*
X001863Y004026D01*
X001784Y004052D01*
X001777Y004053D01*
X001938Y004120D01*
X002075Y004257D01*
X002150Y004438D01*
X002150Y004632D01*
X002110Y004730D01*
X002860Y005480D01*
X002965Y005585D01*
X002965Y005737D01*
X003013Y005737D01*
X003083Y005807D01*
X003083Y006263D01*
X003013Y006333D01*
X002557Y006333D01*
X002487Y006263D01*
X002487Y005807D01*
X002557Y005737D01*
X002605Y005737D01*
X002605Y005735D01*
X001855Y004985D01*
X001757Y005025D01*
X001563Y005025D01*
X001382Y004950D01*
X001245Y004813D01*
X001170Y004632D01*
X001170Y004438D01*
X001245Y004257D01*
X001382Y004120D01*
X001543Y004053D01*
X001536Y004052D01*
X001457Y004026D01*
X001382Y003988D01*
X001315Y003939D01*
X001256Y003880D01*
X001207Y003813D01*
X001169Y003738D01*
X001143Y003659D01*
X001130Y003577D01*
X001130Y003575D01*
X001620Y003575D01*
X001620Y003495D01*
X001130Y003495D01*
X001130Y003493D01*
X001143Y003411D01*
X001169Y003332D01*
X001207Y003257D01*
X001256Y003190D01*
X001315Y003131D01*
X001382Y003082D01*
X001457Y003044D01*
X001542Y003017D02*
X000570Y003017D01*
X000570Y002899D02*
X006855Y002899D01*
X006855Y003017D02*
X001778Y003017D01*
X001784Y003018D02*
X001863Y003044D01*
X001938Y003082D01*
X002005Y003131D01*
X002064Y003190D01*
X002113Y003257D01*
X002151Y003332D01*
X002177Y003411D01*
X002190Y003493D01*
X002190Y003495D01*
X001700Y003495D01*
X001700Y003005D01*
X001702Y003005D01*
X001784Y003018D01*
X001700Y003017D02*
X001620Y003017D01*
X001620Y003136D02*
X001700Y003136D01*
X001700Y003254D02*
X001620Y003254D01*
X001620Y003373D02*
X001700Y003373D01*
X001700Y003491D02*
X001620Y003491D01*
X001310Y003136D02*
X000570Y003136D01*
X000570Y003254D02*
X001209Y003254D01*
X001156Y003373D02*
X000570Y003373D01*
X000570Y003491D02*
X001130Y003491D01*
X001135Y003610D02*
X000570Y003610D01*
X000570Y003728D02*
X001165Y003728D01*
X001231Y003847D02*
X000570Y003847D01*
X000570Y003965D02*
X001350Y003965D01*
X001470Y004084D02*
X000570Y004084D01*
X000570Y004202D02*
X001300Y004202D01*
X001218Y004321D02*
X000570Y004321D01*
X000570Y004439D02*
X001170Y004439D01*
X001170Y004558D02*
X000570Y004558D01*
X000570Y004676D02*
X001188Y004676D01*
X001237Y004795D02*
X000570Y004795D01*
X000570Y004913D02*
X001345Y004913D01*
X001382Y005120D02*
X001563Y005045D01*
X001757Y005045D01*
X001938Y005120D01*
X002075Y005257D01*
X002150Y005438D01*
X002150Y005632D01*
X002075Y005813D01*
X001938Y005950D01*
X001757Y006025D01*
X001563Y006025D01*
X001382Y005950D01*
X001245Y005813D01*
X001170Y005632D01*
X001170Y005438D01*
X001245Y005257D01*
X001382Y005120D01*
X001352Y005150D02*
X000570Y005150D01*
X000570Y005269D02*
X001240Y005269D01*
X001191Y005387D02*
X000570Y005387D01*
X000570Y005506D02*
X001170Y005506D01*
X001170Y005624D02*
X000570Y005624D01*
X000570Y005743D02*
X001216Y005743D01*
X001293Y005861D02*
X000570Y005861D01*
X000570Y005980D02*
X001453Y005980D01*
X001435Y006098D02*
X000570Y006098D01*
X000570Y006217D02*
X001286Y006217D01*
X001245Y006257D02*
X001382Y006120D01*
X001563Y006045D01*
X001757Y006045D01*
X001938Y006120D01*
X002075Y006257D01*
X002150Y006438D01*
X002150Y006632D01*
X002075Y006813D01*
X001938Y006950D01*
X001757Y007025D01*
X001563Y007025D01*
X001382Y006950D01*
X001245Y006813D01*
X001170Y006632D01*
X001170Y006438D01*
X001245Y006257D01*
X001212Y006335D02*
X000570Y006335D01*
X000570Y006454D02*
X001170Y006454D01*
X001170Y006572D02*
X000570Y006572D01*
X000570Y006691D02*
X001194Y006691D01*
X001243Y006809D02*
X000570Y006809D01*
X000570Y006928D02*
X001360Y006928D01*
X001382Y007120D02*
X001563Y007045D01*
X001757Y007045D01*
X001938Y007120D01*
X002075Y007257D01*
X002150Y007438D01*
X002150Y007632D01*
X002075Y007813D01*
X001938Y007950D01*
X001757Y008025D01*
X001563Y008025D01*
X001382Y007950D01*
X001245Y007813D01*
X001170Y007632D01*
X001170Y007438D01*
X001245Y007257D01*
X001382Y007120D01*
X001338Y007165D02*
X000570Y007165D01*
X000570Y007283D02*
X001234Y007283D01*
X001185Y007402D02*
X000570Y007402D01*
X000570Y007520D02*
X001170Y007520D01*
X001173Y007639D02*
X000570Y007639D01*
X000570Y007757D02*
X001222Y007757D01*
X001308Y007876D02*
X000570Y007876D01*
X000570Y007994D02*
X001488Y007994D01*
X001832Y007994D02*
X007417Y007994D01*
X007384Y008113D02*
X000570Y008113D01*
X000570Y008231D02*
X007353Y008231D01*
X007342Y008350D02*
X000570Y008350D01*
X000575Y008468D02*
X007342Y008468D01*
X007352Y008587D02*
X000585Y008587D01*
X000624Y008705D02*
X007384Y008705D01*
X007416Y008824D02*
X000662Y008824D01*
X000716Y008942D02*
X007484Y008942D01*
X007553Y009061D02*
X000802Y009061D01*
X000888Y009179D02*
X007669Y009179D01*
X007812Y009298D02*
X001050Y009298D01*
X001272Y009416D02*
X008039Y009416D01*
X008781Y009416D02*
X008798Y009416D01*
X009008Y009298D02*
X009020Y009298D01*
X009267Y009061D02*
X009268Y009061D01*
X009336Y008942D02*
X009354Y008942D01*
X009404Y008824D02*
X009408Y008824D01*
X009436Y008705D02*
X009446Y008705D01*
X009468Y008587D02*
X009485Y008587D01*
X009478Y008468D02*
X009495Y008468D01*
X009500Y008350D02*
X009478Y008350D01*
X009467Y008231D02*
X009500Y008231D01*
X009500Y008113D02*
X009436Y008113D01*
X009403Y007994D02*
X009500Y007994D01*
X009500Y007876D02*
X009334Y007876D01*
X009266Y007757D02*
X009500Y007757D01*
X009500Y007639D02*
X009149Y007639D01*
X009004Y007520D02*
X009500Y007520D01*
X009500Y007402D02*
X008772Y007402D01*
X008688Y006950D02*
X008507Y007025D01*
X008313Y007025D01*
X008132Y006950D01*
X007995Y006813D01*
X007920Y006632D01*
X007920Y006438D01*
X007995Y006257D01*
X008132Y006120D01*
X008313Y006045D01*
X008507Y006045D01*
X008688Y006120D01*
X008825Y006257D01*
X008900Y006438D01*
X008900Y006632D01*
X008825Y006813D01*
X008688Y006950D01*
X008710Y006928D02*
X009500Y006928D01*
X009500Y007046D02*
X001760Y007046D01*
X001560Y007046D02*
X000570Y007046D01*
X001885Y006098D02*
X002487Y006098D01*
X002487Y005980D02*
X001867Y005980D01*
X002027Y005861D02*
X002487Y005861D01*
X002552Y005743D02*
X002104Y005743D01*
X002150Y005624D02*
X002494Y005624D01*
X002376Y005506D02*
X002150Y005506D01*
X002129Y005387D02*
X002257Y005387D01*
X002139Y005269D02*
X002080Y005269D01*
X002020Y005150D02*
X001968Y005150D01*
X001902Y005032D02*
X000570Y005032D01*
X001660Y004535D02*
X002785Y005660D01*
X002785Y006035D01*
X003018Y005743D02*
X006802Y005743D01*
X006807Y005737D02*
X006855Y005737D01*
X006855Y004333D01*
X006807Y004333D01*
X006737Y004263D01*
X006737Y003807D01*
X006807Y003737D01*
X006855Y003737D01*
X006855Y001873D01*
X006807Y001873D01*
X006737Y001803D01*
X006737Y001348D01*
X006807Y001277D01*
X007263Y001277D01*
X007333Y001348D01*
X007333Y001803D01*
X007263Y001873D01*
X007215Y001873D01*
X007215Y003737D01*
X007263Y003737D01*
X007333Y003807D01*
X007333Y004263D01*
X007263Y004333D01*
X007215Y004333D01*
X007215Y005737D01*
X007263Y005737D01*
X007333Y005807D01*
X007333Y006263D01*
X007263Y006333D01*
X006807Y006333D01*
X006737Y006263D01*
X006737Y005807D01*
X006807Y005737D01*
X006855Y005624D02*
X002965Y005624D01*
X002885Y005506D02*
X006855Y005506D01*
X006855Y005387D02*
X002767Y005387D01*
X002648Y005269D02*
X006855Y005269D01*
X006855Y005150D02*
X002530Y005150D01*
X002411Y005032D02*
X006855Y005032D01*
X006855Y004913D02*
X002293Y004913D01*
X002174Y004795D02*
X006855Y004795D01*
X006855Y004676D02*
X002132Y004676D01*
X002150Y004558D02*
X006855Y004558D01*
X006855Y004439D02*
X002150Y004439D01*
X002102Y004321D02*
X006795Y004321D01*
X006737Y004202D02*
X002020Y004202D01*
X001850Y004084D02*
X006737Y004084D01*
X006737Y003965D02*
X001970Y003965D01*
X002089Y003847D02*
X006737Y003847D01*
X006855Y003728D02*
X002155Y003728D01*
X002185Y003610D02*
X006855Y003610D01*
X006855Y003491D02*
X002190Y003491D01*
X002164Y003373D02*
X006855Y003373D01*
X006855Y003254D02*
X002111Y003254D01*
X002010Y003136D02*
X006855Y003136D01*
X007215Y003136D02*
X007882Y003136D01*
X007880Y003144D02*
X007891Y003103D01*
X007912Y003067D01*
X007942Y003037D01*
X007978Y003016D01*
X008019Y003005D01*
X008370Y003005D01*
X008370Y003495D01*
X007880Y003495D01*
X007880Y003144D01*
X007880Y003254D02*
X007215Y003254D01*
X007215Y003373D02*
X007880Y003373D01*
X007880Y003491D02*
X007215Y003491D01*
X007215Y003610D02*
X007880Y003610D01*
X007880Y003575D02*
X008370Y003575D01*
X008370Y003495D01*
X008450Y003495D01*
X008450Y003575D01*
X008940Y003575D01*
X008940Y003926D01*
X008929Y003967D01*
X008908Y004003D01*
X008878Y004033D01*
X008842Y004054D01*
X008801Y004065D01*
X008556Y004065D01*
X008688Y004120D01*
X008825Y004257D01*
X008900Y004438D01*
X008900Y004632D01*
X008825Y004813D01*
X008688Y004950D01*
X008507Y005025D01*
X008313Y005025D01*
X008132Y004950D01*
X007995Y004813D01*
X007920Y004632D01*
X007920Y004438D01*
X007995Y004257D01*
X008132Y004120D01*
X008264Y004065D01*
X008019Y004065D01*
X007978Y004054D01*
X007942Y004033D01*
X007912Y004003D01*
X007891Y003967D01*
X007880Y003926D01*
X007880Y003575D01*
X007880Y003728D02*
X007215Y003728D01*
X007333Y003847D02*
X007880Y003847D01*
X007890Y003965D02*
X007333Y003965D01*
X007333Y004084D02*
X008220Y004084D01*
X008050Y004202D02*
X007333Y004202D01*
X007275Y004321D02*
X007968Y004321D01*
X007920Y004439D02*
X007215Y004439D01*
X007215Y004558D02*
X007920Y004558D01*
X007938Y004676D02*
X007215Y004676D01*
X007215Y004795D02*
X007987Y004795D01*
X008095Y004913D02*
X007215Y004913D01*
X007215Y005032D02*
X009500Y005032D01*
X009500Y004913D02*
X008725Y004913D01*
X008833Y004795D02*
X009500Y004795D01*
X009500Y004676D02*
X008882Y004676D01*
X008900Y004558D02*
X009500Y004558D01*
X009500Y004439D02*
X008900Y004439D01*
X008852Y004321D02*
X009500Y004321D01*
X009500Y004202D02*
X008770Y004202D01*
X008600Y004084D02*
X009500Y004084D01*
X009500Y003965D02*
X008930Y003965D01*
X008940Y003847D02*
X009500Y003847D01*
X009500Y003728D02*
X008940Y003728D01*
X008940Y003610D02*
X009500Y003610D01*
X009500Y003491D02*
X008940Y003491D01*
X008940Y003495D02*
X008450Y003495D01*
X008450Y003005D01*
X008801Y003005D01*
X008842Y003016D01*
X008878Y003037D01*
X008908Y003067D01*
X008929Y003103D01*
X008940Y003144D01*
X008940Y003495D01*
X008940Y003373D02*
X009500Y003373D01*
X009500Y003254D02*
X008940Y003254D01*
X008938Y003136D02*
X009500Y003136D01*
X009500Y003017D02*
X008844Y003017D01*
X008798Y002662D02*
X009500Y002662D01*
X009500Y002780D02*
X007215Y002780D01*
X007215Y002662D02*
X008022Y002662D01*
X007804Y002543D02*
X007215Y002543D01*
X007215Y002425D02*
X007664Y002425D01*
X007550Y002306D02*
X007215Y002306D01*
X007215Y002188D02*
X007482Y002188D01*
X007414Y002069D02*
X007215Y002069D01*
X007215Y001951D02*
X007382Y001951D01*
X007351Y001832D02*
X007304Y001832D01*
X007333Y001714D02*
X007342Y001714D01*
X007333Y001595D02*
X007342Y001595D01*
X007333Y001477D02*
X007354Y001477D01*
X007333Y001358D02*
X007385Y001358D01*
X007420Y001240D02*
X002650Y001240D01*
X002685Y001358D02*
X006737Y001358D01*
X006737Y001477D02*
X002716Y001477D01*
X002728Y001595D02*
X006737Y001595D01*
X006737Y001714D02*
X002728Y001714D01*
X002719Y001832D02*
X006766Y001832D01*
X006855Y001951D02*
X002688Y001951D01*
X002656Y002069D02*
X006855Y002069D01*
X006855Y002188D02*
X002588Y002188D01*
X002520Y002306D02*
X006855Y002306D01*
X006855Y002425D02*
X002406Y002425D01*
X002266Y002543D02*
X006855Y002543D01*
X006855Y002662D02*
X002048Y002662D01*
X000570Y002780D02*
X006855Y002780D01*
X007215Y002899D02*
X009500Y002899D01*
X009500Y002543D02*
X009016Y002543D01*
X009156Y002425D02*
X009500Y002425D01*
X009500Y002306D02*
X009270Y002306D01*
X009338Y002188D02*
X009500Y002188D01*
X009500Y002069D02*
X009406Y002069D01*
X009438Y001951D02*
X009500Y001951D01*
X009500Y001832D02*
X009469Y001832D01*
X009478Y001714D02*
X009500Y001714D01*
X009495Y001595D02*
X009478Y001595D01*
X009466Y001477D02*
X009482Y001477D01*
X009444Y001358D02*
X009435Y001358D01*
X009405Y001240D02*
X009400Y001240D01*
X009349Y001121D02*
X009332Y001121D01*
X009010Y000766D02*
X008996Y000766D01*
X008776Y000647D02*
X008755Y000647D01*
X008065Y000647D02*
X002005Y000647D01*
X002246Y000766D02*
X007824Y000766D01*
X007676Y000884D02*
X002394Y000884D01*
X002513Y001003D02*
X007557Y001003D01*
X007488Y001121D02*
X002582Y001121D01*
X001315Y000647D02*
X001210Y000647D01*
X001074Y000766D02*
X000996Y000766D01*
X000978Y000776D02*
X000978Y000776D01*
X003083Y005861D02*
X006737Y005861D01*
X006737Y005980D02*
X003083Y005980D01*
X003083Y006098D02*
X006737Y006098D01*
X006737Y006217D02*
X003083Y006217D01*
X002487Y006217D02*
X002034Y006217D01*
X002108Y006335D02*
X007962Y006335D01*
X008036Y006217D02*
X007333Y006217D01*
X007333Y006098D02*
X008185Y006098D01*
X008203Y005980D02*
X007333Y005980D01*
X007333Y005861D02*
X008043Y005861D01*
X007995Y005813D02*
X007920Y005632D01*
X007920Y005438D01*
X007995Y005257D01*
X008132Y005120D01*
X008313Y005045D01*
X008507Y005045D01*
X008688Y005120D01*
X008825Y005257D01*
X008900Y005438D01*
X008900Y005632D01*
X008825Y005813D01*
X008688Y005950D01*
X008507Y006025D01*
X008313Y006025D01*
X008132Y005950D01*
X007995Y005813D01*
X007966Y005743D02*
X007268Y005743D01*
X007215Y005624D02*
X007920Y005624D01*
X007920Y005506D02*
X007215Y005506D01*
X007215Y005387D02*
X007941Y005387D01*
X007990Y005269D02*
X007215Y005269D01*
X007215Y005150D02*
X008102Y005150D01*
X008718Y005150D02*
X009500Y005150D01*
X009500Y005269D02*
X008830Y005269D01*
X008879Y005387D02*
X009500Y005387D01*
X009500Y005506D02*
X008900Y005506D01*
X008900Y005624D02*
X009500Y005624D01*
X009500Y005743D02*
X008854Y005743D01*
X008777Y005861D02*
X009500Y005861D01*
X009500Y005980D02*
X008617Y005980D01*
X008635Y006098D02*
X009500Y006098D01*
X009500Y006217D02*
X008784Y006217D01*
X008858Y006335D02*
X009500Y006335D01*
X009500Y006454D02*
X008900Y006454D01*
X008900Y006572D02*
X009500Y006572D01*
X009500Y006691D02*
X008876Y006691D01*
X008827Y006809D02*
X009500Y006809D01*
X009500Y007165D02*
X001982Y007165D01*
X002086Y007283D02*
X009500Y007283D01*
X008110Y006928D02*
X001960Y006928D01*
X002077Y006809D02*
X007993Y006809D01*
X007944Y006691D02*
X002126Y006691D01*
X002150Y006572D02*
X007920Y006572D01*
X007920Y006454D02*
X002150Y006454D01*
X002135Y007402D02*
X008048Y007402D01*
X007816Y007520D02*
X002150Y007520D01*
X002147Y007639D02*
X007671Y007639D01*
X007554Y007757D02*
X002098Y007757D01*
X002012Y007876D02*
X007486Y007876D01*
X007035Y006035D02*
X007035Y004035D01*
X007035Y001575D01*
X007215Y003017D02*
X007976Y003017D01*
X008370Y003017D02*
X008450Y003017D01*
X008450Y003136D02*
X008370Y003136D01*
X008370Y003254D02*
X008450Y003254D01*
X008450Y003373D02*
X008370Y003373D01*
X008370Y003491D02*
X008450Y003491D01*
D14*
X007035Y004035D03*
X006410Y003160D03*
X007035Y001575D03*
X003785Y004160D03*
X002785Y006035D03*
X002785Y007160D03*
X001410Y008785D03*
X006535Y007035D03*
X007035Y006035D03*
X003285Y001535D03*
M02*
